Lexend-Medium.ufo
<glyph name="parenleft" format="2">
  <advance width="366"/>
  <unicode hex="0028"/>
  <outline>
    <contour>
      <point x="290" y="-186" type="curve"/>
      <point x="346" y="-124" type="line"/>
      <point x="210" y="-29.333"/>
      <point x="137" y="106"/>
      <point x="137" y="258" type="curve" smooth="yes"/>
      <point x="137" y="410"/>
      <point x="210" y="545.333"/>
      <point x="346" y="640" type="curve"/>
      <point x="291" y="702" type="line"/>
      <point x="128.333" y="600.667"/>
      <point x="40" y="443.333"/>
      <point x="40" y="258" type="curve" smooth="yes"/>
      <point x="40" y="71.333"/>
      <point x="127.333" y="-84.667"/>
    </contour>
  </outline>
</glyph>
<glyph name="parenright" format="2">
  <advance width="363"/>
  <unicode hex="0029"/>
  <outline>
    <contour>
      <point x="73" y="-186" type="line"/>
      <point x="236" y="-85"/>
      <point x="324" y="73"/>
      <point x="324" y="258" type="curve" smooth="yes"/>
      <point x="324" y="445"/>
      <point x="237" y="601"/>
      <point x="74" y="702" type="curve"/>
      <point x="18" y="640" type="line"/>
      <point x="154" y="545"/>
      <point x="227" y="410"/>
      <point x="227" y="258" type="curve" smooth="yes"/>
      <point x="227" y="106"/>
      <point x="154" y="-29"/>
      <point x="18" y="-124" type="curve"/>
    </contour>
  </outline>
</glyph>
<glyph name="comma" format="2">
  <advance width="267"/>
  <unicode hex="002C"/>
  <outline>
    <contour>
      <point x="88" y="-179" type="line"/>
      <point x="164" y="-149.667"/>
      <point x="221" y="-74.667"/>
      <point x="221" y="4" type="curve" smooth="yes"/>
      <point x="221" y="70.667"/>
      <point x="182.667" y="117"/>
      <point x="132" y="117" type="curve" smooth="yes"/>
      <point x="96" y="117"/>
      <point x="71" y="96"/>
      <point x="71" y="64" type="curve" smooth="yes"/>
      <point x="71" y="44"/>
      <point x="76.333" y="29.333"/>
      <point x="103" y="4" type="curve" smooth="yes"/>
      <point x="124.333" y="-18.667"/>
      <point x="129" y="-28.667"/>
      <point x="129" y="-42" type="curve" smooth="yes"/>
      <point x="129" y="-67.333"/>
      <point x="96.667" y="-106.333"/>
      <point x="50" y="-133" type="curve"/>
    </contour>
  </outline>
</glyph>
<glyph name="hyphen" format="2">
  <advance width="394"/>
  <unicode hex="002D"/>
  <outline>
    <contour>
      <point x="53" y="235" type="line"/>
      <point x="341" y="235" type="line"/>
      <point x="341" y="337" type="line"/>
      <point x="53" y="337" type="line"/>
    </contour>
  </outline>
</glyph>
<glyph name="five" format="2">
  <advance width="568"/>
  <unicode hex="0035"/>
  <outline>
    <contour>
      <point x="257" y="-7" type="curve" smooth="yes"/>
      <point x="399.667" y="-7"/>
      <point x="508" y="99.333"/>
      <point x="508" y="238" type="curve" smooth="yes"/>
      <point x="508" y="372.667"/>
      <point x="412" y="468"/>
      <point x="284" y="468" type="curve" smooth="yes"/>
      <point x="230.667" y="468"/>
      <point x="160" y="446"/>
      <point x="140" y="426" type="curve"/>
      <point x="165" y="397" type="line"/>
      <point x="198" y="619" type="line"/>
      <point x="177" y="600" type="line"/>
      <point x="487" y="600" type="line"/>
      <point x="487" y="700" type="line"/>
      <point x="109" y="700" type="line"/>
      <point x="68" y="403" type="line"/>
      <point x="125" y="326" type="line"/>
      <point x="202.333" y="364.667"/>
      <point x="227.667" y="368"/>
      <point x="265" y="368" type="curve" smooth="yes"/>
      <point x="342.333" y="368"/>
      <point x="403" y="308"/>
      <point x="403" y="228" type="curve" smooth="yes"/>
      <point x="403" y="152"/>
      <point x="339.667" y="92"/>
      <point x="257" y="92" type="curve" smooth="yes"/>
      <point x="202.333" y="92"/>
      <point x="161.667" y="112.667"/>
      <point x="99" y="182" type="curve"/>
      <point x="39" y="115" type="line"/>
      <point x="88.333" y="36.333"/>
      <point x="165" y="-7"/>
    </contour>
  </outline>
</glyph>
<glyph name="six" format="2">
  <advance width="557"/>
  <unicode hex="0036"/>
  <outline>
    <contour>
      <point x="283" y="0" type="curve" smooth="yes"/>
      <point x="423" y="0"/>
      <point x="522" y="110.667"/>
      <point x="522" y="260" type="curve" smooth="yes"/>
      <point x="522" y="384"/>
      <point x="424" y="489"/>
      <point x="308" y="489" type="curve" smooth="yes"/>
      <point x="226.667" y="489"/>
      <point x="158.667" y="445.667"/>
      <point x="108" y="363" type="curve"/>
      <point x="132" y="260" type="line"/>
      <point x="148" y="325.333"/>
      <point x="189" y="415.667"/>
      <point x="249" y="517" type="curve" smooth="yes"/>
      <point x="359" y="702" type="line"/>
      <point x="355" y="712" type="line"/>
      <point x="250" y="712" type="line"/>
      <point x="159" y="558" type="line" smooth="yes"/>
      <point x="81.667" y="428.667"/>
      <point x="40" y="319"/>
      <point x="40" y="247" type="curve" smooth="yes"/>
      <point x="40" y="104.333"/>
      <point x="144.333" y="0"/>
    </contour>
    <contour>
      <point x="283" y="100" type="curve" smooth="yes"/>
      <point x="201.667" y="100"/>
      <point x="144" y="164"/>
      <point x="144" y="248" type="curve" smooth="yes"/>
      <point x="144" y="326.667"/>
      <point x="202.333" y="389"/>
      <point x="285" y="389" type="curve" smooth="yes"/>
      <point x="358.333" y="389"/>
      <point x="418" y="321.667"/>
      <point x="418" y="247" type="curve" smooth="yes"/>
      <point x="418" y="160.333"/>
      <point x="360.333" y="100"/>
    </contour>
  </outline>
</glyph>
<glyph name="seven" format="2">
  <advance width="542"/>
  <unicode hex="0037"/>
  <outline>
    <contour>
      <point x="112" y="0" type="line"/>
      <point x="228" y="0" type="line"/>
      <point x="507" y="631" type="line"/>
      <point x="493" y="700" type="line"/>
      <point x="60" y="700" type="line"/>
      <point x="60" y="600" type="line"/>
      <point x="414" y="600" type="line"/>
      <point x="402" y="632" type="line"/>
    </contour>
  </outline>
</glyph>
<glyph name="nine" format="2">
  <advance width="551"/>
  <unicode hex="0039"/>
  <outline>
    <contour>
      <point x="228" y="0" type="line"/>
      <point x="334" y="0" type="line"/>
      <point x="417" y="174" type="line" smooth="yes"/>
      <point x="491.667" y="332.667"/>
      <point x="516" y="411.333"/>
      <point x="516" y="478" type="curve" smooth="yes"/>
      <point x="516" y="607.333"/>
      <point x="407.333" y="712"/>
      <point x="274" y="712" type="curve" smooth="yes"/>
      <point x="135.333" y="712"/>
      <point x="30" y="604.667"/>
      <point x="30" y="462" type="curve" smooth="yes"/>
      <point x="30" y="343.333"/>
      <point x="126.333" y="243"/>
      <point x="241" y="243" type="curve" smooth="yes"/>
      <point x="315.667" y="243"/>
      <point x="388.333" y="290.333"/>
      <point x="435" y="369" type="curve"/>
      <point x="432" y="452" type="line"/>
      <point x="224" y="10" type="line"/>
    </contour>
    <contour>
      <point x="264" y="343" type="curve" smooth="yes"/>
      <point x="196" y="343"/>
      <point x="141" y="405.667"/>
      <point x="141" y="475" type="curve" smooth="yes"/>
      <point x="141" y="556.333"/>
      <point x="194" y="612"/>
      <point x="266" y="612" type="curve" smooth="yes"/>
      <point x="344.667" y="612"/>
      <point x="400" y="552.667"/>
      <point x="400" y="474" type="curve" smooth="yes"/>
      <point x="400" y="400.667"/>
      <point x="342.667" y="343"/>
    </contour>
  </outline>
</glyph>
<glyph name="question" format="2">
  <advance width="511"/>
  <unicode hex="003F"/>
  <outline>
    <contour>
      <point x="193" y="211" type="line"/>
      <point x="270" y="211" type="line"/>
      <point x="287.428" y="300.754" type="line"/>
      <point x="393.304" y="338.716"/>
      <point x="471" y="422.458"/>
      <point x="471" y="511" type="curve" smooth="yes"/>
      <point x="471" y="623"/>
      <point x="374.333" y="709"/>
      <point x="249" y="709" type="curve" smooth="yes"/>
      <point x="162.333" y="709"/>
      <point x="79.333" y="658"/>
      <point x="22" y="570" type="curve"/>
      <point x="97" y="507" type="line"/>
      <point x="133" y="573.667"/>
      <point x="185.667" y="612"/>
      <point x="239" y="612" type="curve" smooth="yes"/>
      <point x="307" y="612"/>
      <point x="358" y="569.667"/>
      <point x="358" y="511" type="curve" smooth="yes"/>
      <point x="358" y="436.333"/>
      <point x="297.667" y="386.667"/>
      <point x="167" y="352" type="curve"/>
    </contour>
    <contour>
      <point x="158" y="64" type="curve" smooth="yes"/>
      <point x="158" y="16"/>
      <point x="183" y="-11"/>
      <point x="227" y="-11" type="curve" smooth="yes"/>
      <point x="268.333" y="-11"/>
      <point x="296" y="20"/>
      <point x="296" y="64" type="curve" smooth="yes"/>
      <point x="296" y="112"/>
      <point x="271" y="139"/>
      <point x="227" y="139" type="curve" smooth="yes"/>
      <point x="185.667" y="139"/>
      <point x="158" y="108"/>
    </contour>
  </outline>
</glyph>
<glyph name="B" format="2">
  <advance width="681"/>
  <unicode hex="0042"/>
  <anchor x="341" y="0" name="bottom"/>
  <anchor x="341" y="700" name="top"/>
  <outline>
    <contour>
      <point x="98" y="0" type="line"/>
      <point x="400" y="0" type="line" smooth="yes"/>
      <point x="546.667" y="0"/>
      <point x="633" y="72.667"/>
      <point x="633" y="206" type="curve" smooth="yes"/>
      <point x="633" y="304"/>
      <point x="570" y="371"/>
      <point x="477" y="392" type="curve"/>
      <point x="477" y="372" type="line"/>
      <point x="552" y="392"/>
      <point x="596" y="448"/>
      <point x="596" y="524" type="curve" smooth="yes"/>
      <point x="596" y="638.667"/>
      <point x="524.667" y="700"/>
      <point x="390" y="700" type="curve" smooth="yes"/>
      <point x="98" y="700" type="line"/>
    </contour>
    <contour>
      <point x="206" y="104" type="line"/>
      <point x="206" y="306" type="line"/>
      <point x="389" y="306" type="line" smooth="yes"/>
      <point x="470.333" y="306"/>
      <point x="523" y="270.667"/>
      <point x="523" y="208" type="curve" smooth="yes"/>
      <point x="523" y="141.333"/>
      <point x="475.333" y="104"/>
      <point x="394" y="104" type="curve" smooth="yes"/>
    </contour>
    <contour>
      <point x="206" y="410" type="line"/>
      <point x="206" y="596" type="line"/>
      <point x="372" y="596" type="line" smooth="yes"/>
      <point x="446.667" y="596"/>
      <point x="488" y="563"/>
      <point x="488" y="503" type="curve" smooth="yes"/>
      <point x="488" y="448.333"/>
      <point x="444" y="410"/>
      <point x="384" y="410" type="curve" smooth="yes"/>
    </contour>
  </outline>
</glyph>
<glyph name="C" format="2">
  <advance width="679"/>
  <unicode hex="0043"/>
  <anchor x="376" y="0" name="bottom"/>
  <anchor x="390" y="700" name="top"/>
  <outline>
    <contour>
      <point x="382" y="-10" type="curve" smooth="yes"/>
      <point x="480.667" y="-10"/>
      <point x="583.333" y="31.333"/>
      <point x="630" y="86" type="curve"/>
      <point x="576" y="174" type="line"/>
      <point x="530.667" y="127.333"/>
      <point x="466.667" y="99"/>
      <point x="400" y="99" type="curve" smooth="yes"/>
      <point x="256" y="99"/>
      <point x="158" y="196.667"/>
      <point x="158" y="350" type="curve" smooth="yes"/>
      <point x="158" y="494"/>
      <point x="260.333" y="598"/>
      <point x="391" y="598" type="curve" smooth="yes"/>
      <point x="453.667" y="598"/>
      <point x="513.667" y="568.667"/>
      <point x="571" y="510" type="curve"/>
      <point x="643" y="585" type="line"/>
      <point x="593.667" y="655.667"/>
      <point x="492.333" y="706"/>
      <point x="391" y="706" type="curve" smooth="yes"/>
      <point x="200.333" y="706"/>
      <point x="48" y="550"/>
      <point x="48" y="350" type="curve" smooth="yes"/>
      <point x="48" y="138"/>
      <point x="187.333" y="-10"/>
    </contour>
  </outline>
</glyph>
<glyph name="D" format="2">
  <advance width="748"/>
  <unicode hex="0044"/>
  <anchor x="374" y="0" name="bottom"/>
  <anchor x="188" y="350" name="center"/>
  <anchor x="374" y="700" name="top"/>
  <outline>
    <contour>
      <point x="98" y="0" type="line"/>
      <point x="372" y="0" type="line" smooth="yes"/>
      <point x="573.333" y="0"/>
      <point x="700" y="140.667"/>
      <point x="700" y="350" type="curve" smooth="yes"/>
      <point x="700" y="558"/>
      <point x="572" y="700"/>
      <point x="372" y="700" type="curve" smooth="yes"/>
      <point x="98" y="700" type="line"/>
    </contour>
    <contour>
      <point x="206" y="93" type="line"/>
      <point x="206" y="605" type="line"/>
      <point x="200" y="596" type="line"/>
      <point x="367" y="596" type="line" smooth="yes"/>
      <point x="507" y="596"/>
      <point x="590" y="502"/>
      <point x="590" y="350" type="curve" smooth="yes"/>
      <point x="590" y="196.667"/>
      <point x="508.333" y="104"/>
      <point x="367" y="104" type="curve" smooth="yes"/>
      <point x="203" y="104" type="line"/>
    </contour>
  </outline>
</glyph>
<glyph name="H" format="2">
  <advance width="761"/>
  <unicode hex="0048"/>
  <anchor x="381" y="0" name="bottom"/>
  <anchor x="381" y="350" name="center"/>
  <anchor x="381" y="700" name="top"/>
  <anchor x="20" y="700" name="topleft"/>
  <outline>
    <contour>
      <point x="555" y="0" type="line"/>
      <point x="663" y="0" type="line"/>
      <point x="663" y="700" type="line"/>
      <point x="555" y="700" type="line"/>
    </contour>
    <contour>
      <point x="98" y="0" type="line"/>
      <point x="206" y="0" type="line"/>
      <point x="206" y="700" type="line"/>
      <point x="98" y="700" type="line"/>
    </contour>
    <contour>
      <point x="145" y="297" type="line"/>
      <point x="603" y="297" type="line"/>
      <point x="603" y="401" type="line"/>
      <point x="145" y="401" type="line"/>
    </contour>
  </outline>
</glyph>
<glyph name="I" format="2">
  <advance width="478"/>
  <unicode hex="0049"/>
  <anchor x="239" y="0" name="bottom"/>
  <anchor x="343" y="0" name="ogonek"/>
  <anchor x="239" y="700" name="top"/>
  <anchor x="20" y="700" name="topleft"/>
  <outline>
    <contour>
      <point x="72" y="0" type="line"/>
      <point x="406" y="0" type="line"/>
      <point x="406" y="100" type="line"/>
      <point x="293" y="100" type="line"/>
      <point x="293" y="600" type="line"/>
      <point x="406" y="600" type="line"/>
      <point x="406" y="700" type="line"/>
      <point x="72" y="700" type="line"/>
      <point x="72" y="600" type="line"/>
      <point x="185" y="600" type="line"/>
      <point x="185" y="100" type="line"/>
      <point x="72" y="100" type="line"/>
    </contour>
  </outline>
</glyph>
<glyph name="J" format="2">
  <advance width="642"/>
  <unicode hex="004A"/>
  <anchor x="321" y="0" name="bottom"/>
  <anchor x="426" y="700" name="top"/>
  <outline>
    <contour>
      <point x="256" y="-10" type="curve" smooth="yes"/>
      <point x="390.667" y="-10"/>
      <point x="484" y="86.333"/>
      <point x="484" y="213" type="curve" smooth="yes"/>
      <point x="484" y="600" type="line"/>
      <point x="592" y="600" type="line"/>
      <point x="592" y="700" type="line"/>
      <point x="248" y="700" type="line"/>
      <point x="248" y="600" type="line"/>
      <point x="376" y="600" type="line"/>
      <point x="376" y="223" type="line" smooth="yes"/>
      <point x="376" y="148.333"/>
      <point x="328" y="95"/>
      <point x="256" y="95" type="curve" smooth="yes"/>
      <point x="206.667" y="95"/>
      <point x="175.333" y="109.333"/>
      <point x="118" y="188" type="curve"/>
      <point x="50" y="117" type="line"/>
      <point x="88.667" y="41"/>
      <point x="165.333" y="-10"/>
    </contour>
  </outline>
</glyph>
<glyph name="K" format="2">
  <advance width="732"/>
  <unicode hex="004B"/>
  <anchor x="366" y="0" name="bottom"/>
  <anchor x="366" y="700" name="top"/>
  <outline>
    <contour>
      <point x="188" y="212" type="line"/>
      <point x="691" y="700" type="line"/>
      <point x="549" y="700" type="line"/>
      <point x="182" y="333" type="line"/>
    </contour>
    <contour>
      <point x="98" y="0" type="line"/>
      <point x="206" y="0" type="line"/>
      <point x="206" y="700" type="line"/>
      <point x="98" y="700" type="line"/>
    </contour>
    <contour>
      <point x="562" y="0" type="line"/>
      <point x="697" y="0" type="line"/>
      <point x="374" y="427" type="line"/>
      <point x="294" y="358" type="line"/>
    </contour>
  </outline>
</glyph>
<glyph name="O" format="2">
  <advance width="782"/>
  <unicode hex="004F"/>
  <anchor x="391" y="0" name="bottom"/>
  <anchor x="391" y="350" name="center"/>
  <anchor x="563" y="0" name="ogonek"/>
  <anchor x="391" y="700" name="top"/>
  <anchor x="20" y="700" name="topleft"/>
  <anchor x="762" y="700" name="topright"/>
  <outline>
    <contour>
      <point x="391" y="-10" type="curve" smooth="yes"/>
      <point x="588.333" y="-10"/>
      <point x="734" y="144.667"/>
      <point x="734" y="350" type="curve" smooth="yes"/>
      <point x="734" y="555.333"/>
      <point x="588.333" y="710"/>
      <point x="391" y="710" type="curve" smooth="yes"/>
      <point x="193.667" y="710"/>
      <point x="48" y="556.667"/>
      <point x="48" y="350" type="curve" smooth="yes"/>
      <point x="48" y="143.333"/>
      <point x="193.667" y="-10"/>
    </contour>
    <contour>
      <point x="391" y="95" type="curve" smooth="yes"/>
      <point x="255" y="95"/>
      <point x="158" y="202"/>
      <point x="158" y="350" type="curve" smooth="yes"/>
      <point x="158" y="498"/>
      <point x="255" y="605"/>
      <point x="391" y="605" type="curve" smooth="yes"/>
      <point x="525.667" y="605"/>
      <point x="624" y="496.667"/>
      <point x="624" y="350" type="curve" smooth="yes"/>
      <point x="624" y="203.333"/>
      <point x="525.667" y="95"/>
    </contour>
  </outline>
</glyph>
<glyph name="P" format="2">
  <advance width="634"/>
  <unicode hex="0050"/>
  <anchor x="317" y="0" name="bottom"/>
  <anchor x="317" y="700" name="top"/>
  <outline>
    <contour>
      <point x="98" y="0" type="line"/>
      <point x="206" y="0" type="line"/>
      <point x="206" y="268" type="line"/>
      <point x="383" y="268" type="line" smooth="yes"/>
      <point x="496.333" y="268"/>
      <point x="589" y="365"/>
      <point x="589" y="485" type="curve" smooth="yes"/>
      <point x="589" y="605"/>
      <point x="496.333" y="700"/>
      <point x="383" y="700" type="curve" smooth="yes"/>
      <point x="98" y="700" type="line"/>
    </contour>
    <contour>
      <point x="206" y="372" type="line"/>
      <point x="206" y="596" type="line"/>
      <point x="381" y="596" type="line" smooth="yes"/>
      <point x="434.333" y="596"/>
      <point x="479" y="546.333"/>
      <point x="479" y="485" type="curve" smooth="yes"/>
      <point x="479" y="423.667"/>
      <point x="434.333" y="372"/>
      <point x="381" y="372" type="curve" smooth="yes"/>
    </contour>
  </outline>
</glyph>
<glyph name="U" format="2">
  <advance width="740"/>
  <unicode hex="0055"/>
  <anchor x="370" y="0" name="bottom"/>
  <anchor x="540" y="0" name="ogonek"/>
  <anchor x="370" y="700" name="top"/>
  <anchor x="720" y="700" name="topright"/>
  <outline>
    <contour>
      <point x="370" y="-6" type="curve" smooth="yes"/>
      <point x="532.667" y="-6"/>
      <point x="652" y="110.333"/>
      <point x="652" y="269" type="curve" smooth="yes"/>
      <point x="652" y="701" type="line"/>
      <point x="549" y="701" type="line"/>
      <point x="549" y="278" type="line" smooth="yes"/>
      <point x="549" y="176.667"/>
      <point x="470" y="98"/>
      <point x="370" y="98" type="curve" smooth="yes"/>
      <point x="275.333" y="98"/>
      <point x="196" y="176.667"/>
      <point x="196" y="278" type="curve" smooth="yes"/>
      <point x="196" y="701" type="line"/>
      <point x="88" y="701" type="line"/>
      <point x="88" y="269" type="line" smooth="yes"/>
      <point x="88" y="110.333"/>
      <point x="207.333" y="-6"/>
    </contour>
  </outline>
</glyph>
<glyph name="W" format="2">
  <advance width="996"/>
  <unicode hex="0057"/>
  <anchor x="498" y="0" name="bottom"/>
  <anchor x="498" y="700" name="top"/>
  <outline>
    <contour>
      <point x="247" y="0" type="line"/>
      <point x="320" y="0" type="line"/>
      <point x="498" y="434" type="line"/>
      <point x="489" y="438" type="line"/>
      <point x="674" y="0" type="line"/>
      <point x="749" y="0" type="line"/>
      <point x="972" y="700" type="line"/>
      <point x="856" y="700" type="line"/>
      <point x="723" y="265" type="line" smooth="yes"/>
      <point x="696" y="177"/>
      <point x="705" y="203"/>
      <point x="688" y="112" type="curve"/>
      <point x="714" y="119" type="line"/>
      <point x="700" y="171"/>
      <point x="690" y="214"/>
      <point x="670" y="263" type="curve" smooth="yes"/>
      <point x="548" y="579" type="line"/>
      <point x="451" y="579" type="line"/>
      <point x="325" y="263" type="line" smooth="yes"/>
      <point x="316.809" y="241.939"/>
      <point x="308.257" y="215.047"/>
      <point x="279" y="110" type="curve"/>
      <point x="308" y="109" type="line"/>
      <point x="301" y="140"/>
      <point x="289" y="218"/>
      <point x="274" y="262" type="curve" smooth="yes"/>
      <point x="139" y="700" type="line"/>
      <point x="24" y="700" type="line"/>
    </contour>
  </outline>
</glyph>
<glyph name="Y" format="2">
  <advance width="660"/>
  <unicode hex="0059"/>
  <anchor x="330" y="0" name="bottom"/>
  <anchor x="330" y="700" name="top"/>
  <anchor x="20" y="700" name="topleft"/>
  <outline>
    <contour>
      <point x="286" y="0" type="line"/>
      <point x="394" y="0" type="line"/>
      <point x="394" y="357" type="line"/>
      <point x="379" y="289" type="line"/>
      <point x="650" y="700" type="line"/>
      <point x="526" y="700" type="line"/>
      <point x="331" y="393" type="line"/>
      <point x="356" y="390" type="line"/>
      <point x="140" y="700" type="line"/>
      <point x="10" y="700" type="line"/>
      <point x="293" y="300" type="line"/>
      <point x="286" y="349" type="line"/>
    </contour>
  </outline>
</glyph>
<glyph name="asciicircum" format="2">
  <advance width="579"/>
  <unicode hex="005E"/>
  <outline>
    <contour>
      <point x="29" y="368" type="line"/>
      <point x="142" y="368" type="line"/>
      <point x="301" y="636" type="line"/>
      <point x="281" y="633" type="line"/>
      <point x="436" y="368" type="line"/>
      <point x="551" y="368" type="line"/>
      <point x="340" y="727" type="line"/>
      <point x="240" y="727" type="line"/>
    </contour>
  </outline>
</glyph>
<glyph name="b" format="2">
  <advance width="630"/>
  <unicode hex="0062"/>
  <anchor x="315" y="0" name="bottom"/>
  <anchor x="315" y="740" name="top"/>
  <outline>
    <contour>
      <point x="348" y="-10" type="curve" smooth="yes"/>
      <point x="486.667" y="-10"/>
      <point x="590" y="106.667"/>
      <point x="590" y="264" type="curve" smooth="yes"/>
      <point x="590" y="422.667"/>
      <point x="486.333" y="536"/>
      <point x="345" y="536" type="curve" smooth="yes"/>
      <point x="259.667" y="536"/>
      <point x="171" y="474"/>
      <point x="159" y="414" type="curve"/>
      <point x="175" y="405" type="line"/>
      <point x="175" y="740" type="line"/>
      <point x="72" y="740" type="line"/>
      <point x="72" y="3" type="line"/>
      <point x="175" y="3" type="line"/>
      <point x="175" y="131" type="line"/>
      <point x="149" y="117" type="line"/>
      <point x="163.667" y="55.667"/>
      <point x="256" y="-10"/>
    </contour>
    <contour>
      <point x="331" y="84" type="curve" smooth="yes"/>
      <point x="237.667" y="84"/>
      <point x="170" y="160"/>
      <point x="170" y="264" type="curve" smooth="yes"/>
      <point x="170" y="366.667"/>
      <point x="237.667" y="442"/>
      <point x="331" y="442" type="curve" smooth="yes"/>
      <point x="424.333" y="442"/>
      <point x="491" y="366.667"/>
      <point x="491" y="264" type="curve" smooth="yes"/>
      <point x="491" y="160"/>
      <point x="423" y="84"/>
    </contour>
  </outline>
</glyph>
<glyph name="c" format="2">
  <advance width="535"/>
  <unicode hex="0063"/>
  <anchor x="296" y="0" name="bottom"/>
  <anchor x="295" y="525" name="top"/>
  <outline>
    <contour>
      <point x="295" y="-10" type="curve" smooth="yes"/>
      <point x="380.333" y="-10"/>
      <point x="467.333" y="33"/>
      <point x="510" y="93" type="curve"/>
      <point x="453" y="163" type="line"/>
      <point x="410.333" y="111"/>
      <point x="359.333" y="83"/>
      <point x="306" y="83" type="curve" smooth="yes"/>
      <point x="214" y="83"/>
      <point x="138" y="161.667"/>
      <point x="138" y="263" type="curve" smooth="yes"/>
      <point x="138" y="365.667"/>
      <point x="209" y="443"/>
      <point x="305" y="443" type="curve" smooth="yes"/>
      <point x="357" y="443"/>
      <point x="421" y="406.667"/>
      <point x="453" y="360" type="curve"/>
      <point x="510" y="430" type="line"/>
      <point x="470" y="495.333"/>
      <point x="388.333" y="536"/>
      <point x="295" y="536" type="curve" smooth="yes"/>
      <point x="149.667" y="536"/>
      <point x="40" y="417.667"/>
      <point x="40" y="263" type="curve" smooth="yes"/>
      <point x="40" y="108.333"/>
      <point x="149.667" y="-10"/>
    </contour>
  </outline>
</glyph>
<glyph name="f" format="2">
  <advance width="393"/>
  <unicode hex="0066"/>
  <anchor x="197" y="0" name="bottom"/>
  <anchor x="197" y="740" name="top"/>
  <outline>
    <contour>
      <point x="129" y="0" type="line"/>
      <point x="146.333" y="0"/>
      <point x="163.667" y="0"/>
      <point x="181" y="0" type="curve" smooth="yes"/>
      <point x="233" y="0" type="line"/>
      <point x="233" y="584" type="line" smooth="yes"/>
      <point x="233" y="622.667"/>
      <point x="254.333" y="643"/>
      <point x="297" y="643" type="curve" smooth="yes"/>
      <point x="315.667" y="643"/>
      <point x="337.667" y="632"/>
      <point x="355" y="616" type="curve"/>
      <point x="390" y="695" type="line"/>
      <point x="367.333" y="721.667"/>
      <point x="327.667" y="739"/>
      <point x="285" y="739" type="curve" smooth="yes"/>
      <point x="193" y="739"/>
      <point x="129" y="674.667"/>
      <point x="129" y="584" type="curve" smooth="yes"/>
    </contour>
    <contour>
      <point x="45" y="421" type="line"/>
      <point x="357" y="421" type="line"/>
      <point x="357" y="516" type="line"/>
      <point x="45" y="516" type="line"/>
    </contour>
  </outline>
</glyph>
<glyph name="g" format="2">
  <advance width="649"/>
  <unicode hex="0067"/>
  <anchor x="325" y="-230" name="bottom"/>
  <anchor x="325" y="525" name="top"/>
  <outline>
    <contour>
      <point x="307" y="-230" type="curve" smooth="yes"/>
      <point x="475" y="-230"/>
      <point x="577" y="-134.667"/>
      <point x="577" y="32" type="curve" smooth="yes"/>
      <point x="577" y="525" type="line"/>
      <point x="474" y="525" type="line"/>
      <point x="474" y="402" type="line"/>
      <point x="496" y="410" type="line"/>
      <point x="486.667" y="464.667"/>
      <point x="395.667" y="536"/>
      <point x="297" y="536" type="curve" smooth="yes"/>
      <point x="150.333" y="536"/>
      <point x="40" y="420.333"/>
      <point x="40" y="263" type="curve" smooth="yes"/>
      <point x="40" y="105.667"/>
      <point x="150.667" y="-10"/>
      <point x="300" y="-10" type="curve" smooth="yes"/>
      <point x="386.667" y="-10"/>
      <point x="475.667" y="52.667"/>
      <point x="485" y="114" type="curve"/>
      <point x="474" y="121" type="line"/>
      <point x="474" y="20" type="line" smooth="yes"/>
      <point x="474" y="-84"/>
      <point x="416.333" y="-138"/>
      <point x="307" y="-138" type="curve" smooth="yes"/>
      <point x="248.333" y="-138"/>
      <point x="184" y="-117.667"/>
      <point x="144" y="-87" type="curve"/>
      <point x="106" y="-167" type="line"/>
      <point x="151.333" y="-204.333"/>
      <point x="232.333" y="-230"/>
    </contour>
    <contour>
      <point x="311" y="85" type="curve" smooth="yes"/>
      <point x="215" y="85"/>
      <point x="145" y="160.333"/>
      <point x="145" y="263" type="curve" smooth="yes"/>
      <point x="145" y="365.667"/>
      <point x="215" y="442"/>
      <point x="311" y="442" type="curve" smooth="yes"/>
      <point x="408.333" y="442"/>
      <point x="478" y="367"/>
      <point x="478" y="263" type="curve" smooth="yes"/>
      <point x="478" y="159"/>
      <point x="409.667" y="85"/>
    </contour>
  </outline>
</glyph>
<glyph name="h" format="2">
  <advance width="595"/>
  <unicode hex="0068"/>
  <anchor x="298" y="0" name="bottom"/>
  <anchor x="146" y="638" name="center"/>
  <anchor x="298" y="740" name="top"/>
  <outline>
    <contour>
      <point x="72" y="0" type="line"/>
      <point x="89.333" y="0"/>
      <point x="106.5" y="0"/>
      <point x="123.5" y="0" type="curve" smooth="yes"/>
      <point x="175" y="0" type="line"/>
      <point x="175" y="318" type="line" smooth="yes"/>
      <point x="175" y="387.333"/>
      <point x="234.333" y="442"/>
      <point x="313" y="442" type="curve" smooth="yes"/>
      <point x="387.667" y="446"/>
      <point x="424" y="403.667"/>
      <point x="424" y="313" type="curve" smooth="yes"/>
      <point x="424" y="0" type="line"/>
      <point x="527" y="0" type="line"/>
      <point x="527" y="320" type="line" smooth="yes"/>
      <point x="527" y="465.333"/>
      <point x="467" y="536"/>
      <point x="347" y="536" type="curve" smooth="yes"/>
      <point x="263" y="536"/>
      <point x="177" y="474.333"/>
      <point x="157" y="405" type="curve"/>
      <point x="175" y="417" type="line"/>
      <point x="175" y="740" type="line"/>
      <point x="72" y="740" type="line"/>
    </contour>
  </outline>
</glyph>
<glyph name="k" format="2">
  <advance width="568"/>
  <unicode hex="006B"/>
  <anchor x="283" y="0" name="bottom"/>
  <anchor x="283" y="740" name="top"/>
  <outline>
    <contour>
      <point x="166" y="164" type="line"/>
      <point x="551" y="525" type="line"/>
      <point x="412" y="525" type="line"/>
      <point x="161" y="276" type="line"/>
    </contour>
    <contour>
      <point x="72" y="0" type="line"/>
      <point x="175" y="0" type="line"/>
      <point x="175" y="740" type="line"/>
      <point x="72" y="740" type="line"/>
    </contour>
    <contour>
      <point x="426" y="0" type="line"/>
      <point x="558" y="0" type="line"/>
      <point x="301" y="298" type="line"/>
      <point x="228" y="231" type="line"/>
    </contour>
  </outline>
</glyph>
<glyph name="n" format="2">
  <advance width="595"/>
  <unicode hex="006E"/>
  <anchor x="298" y="0" name="bottom"/>
  <anchor x="298" y="525" name="top"/>
  <outline>
    <contour>
      <point x="72" y="0" type="line"/>
      <point x="89.333" y="0"/>
      <point x="106.5" y="0"/>
      <point x="123.5" y="0" type="curve" smooth="yes"/>
      <point x="175" y="0" type="line"/>
      <point x="175" y="318" type="line" smooth="yes"/>
      <point x="175" y="387.333"/>
      <point x="234.333" y="442"/>
      <point x="313" y="442" type="curve" smooth="yes"/>
      <point x="387.667" y="446"/>
      <point x="424" y="403.667"/>
      <point x="424" y="313" type="curve" smooth="yes"/>
      <point x="424" y="0" type="line"/>
      <point x="527" y="0" type="line"/>
      <point x="527" y="320" type="line" smooth="yes"/>
      <point x="527" y="465.333"/>
      <point x="467" y="536"/>
      <point x="347" y="536" type="curve" smooth="yes"/>
      <point x="263" y="536"/>
      <point x="177" y="474.333"/>
      <point x="157" y="405" type="curve"/>
      <point x="175" y="417" type="line"/>
      <point x="175" y="525" type="line"/>
      <point x="72" y="525" type="line"/>
    </contour>
  </outline>
</glyph>
<glyph name="o" format="2">
  <advance width="615"/>
  <unicode hex="006F"/>
  <anchor x="308" y="0" name="bottom"/>
  <anchor x="308" y="263" name="center"/>
  <anchor x="461" y="0" name="ogonek"/>
  <anchor x="308" y="525" name="top"/>
  <anchor x="595" y="525" name="topright"/>
  <outline>
    <contour>
      <point x="308" y="-10" type="curve" smooth="yes"/>
      <point x="460" y="-10"/>
      <point x="575" y="105.667"/>
      <point x="575" y="263" type="curve" smooth="yes"/>
      <point x="575" y="420.333"/>
      <point x="460" y="536"/>
      <point x="308" y="536" type="curve" smooth="yes"/>
      <point x="154.667" y="536"/>
      <point x="40" y="420.333"/>
      <point x="40" y="263" type="curve" smooth="yes"/>
      <point x="40" y="105.667"/>
      <point x="154.667" y="-10"/>
    </contour>
    <contour>
      <point x="308" y="84" type="curve" smooth="yes"/>
      <point x="213.333" y="84"/>
      <point x="143.667" y="160.333"/>
      <point x="145" y="263" type="curve" smooth="yes"/>
      <point x="143.667" y="365.667"/>
      <point x="213.333" y="442"/>
      <point x="308" y="442" type="curve" smooth="yes"/>
      <point x="402.667" y="442"/>
      <point x="471.333" y="367"/>
      <point x="470" y="263" type="curve" smooth="yes"/>
      <point x="471.333" y="160.333"/>
      <point x="402.667" y="84"/>
    </contour>
  </outline>
</glyph>
<glyph name="t" format="2">
  <advance width="384"/>
  <unicode hex="0074"/>
  <anchor x="192" y="0" name="bottom"/>
  <anchor x="192" y="263" name="center"/>
  <anchor x="192" y="612" name="top"/>
  <anchor x="269" y="787" name="topright"/>
  <outline>
    <contour>
      <point x="137" y="0" type="line"/>
      <point x="240" y="0" type="line"/>
      <point x="240" y="659" type="line"/>
      <point x="137" y="659" type="line"/>
    </contour>
    <contour>
      <point x="28" y="425" type="line"/>
      <point x="362" y="425" type="line"/>
      <point x="362" y="525" type="line"/>
      <point x="28" y="525" type="line"/>
    </contour>
  </outline>
</glyph>
<glyph name="x" format="2">
  <advance width="562"/>
  <unicode hex="0078"/>
  <anchor x="281" y="0" name="bottom"/>
  <anchor x="281" y="525" name="top"/>
  <outline>
    <contour>
      <point x="421" y="0" type="line"/>
      <point x="547" y="0" type="line"/>
      <point x="329" y="285" type="line"/>
      <point x="312" y="307" type="line"/>
      <point x="145" y="525" type="line"/>
      <point x="15" y="525" type="line"/>
      <point x="236" y="240" type="line"/>
      <point x="251" y="221" type="line"/>
    </contour>
    <contour>
      <point x="16" y="0" type="line"/>
      <point x="138" y="0" type="line"/>
      <point x="284" y="197" type="line"/>
      <point x="223" y="270" type="line"/>
    </contour>
    <contour>
      <point x="335" y="254" type="line"/>
      <point x="529" y="525" type="line"/>
      <point x="407" y="525" type="line"/>
      <point x="278" y="326" type="line"/>
    </contour>
  </outline>
</glyph>
<glyph name="z" format="2">
  <advance width="484"/>
  <unicode hex="007A"/>
  <anchor x="242" y="0" name="bottom"/>
  <anchor x="242" y="263" name="center"/>
  <anchor x="242" y="525" name="top"/>
  <outline>
    <contour>
      <point x="50" y="0" type="line"/>
      <point x="439" y="0" type="line"/>
      <point x="439" y="89" type="line"/>
      <point x="162" y="89" type="line"/>
      <point x="166" y="84" type="line"/>
      <point x="433" y="441" type="line"/>
      <point x="433" y="525" type="line"/>
      <point x="50" y="525" type="line"/>
      <point x="50" y="436" type="line"/>
      <point x="321" y="436" type="line"/>
      <point x="321" y="448" type="line"/>
      <point x="50" y="86" type="line"/>
    </contour>
  </outline>
</glyph>
<glyph name="braceleft" format="2">
  <advance width="411"/>
  <unicode hex="007B"/>
  <outline>
    <contour>
      <point x="369" y="-200" type="curve"/>
      <point x="387" y="-131" type="line"/>
      <point x="300.333" y="-101.667"/>
      <point x="275" y="-74.333"/>
      <point x="275" y="7" type="curve" smooth="yes"/>
      <point x="277" y="102" type="line" smooth="yes"/>
      <point x="277" y="178"/>
      <point x="241" y="229.333"/>
      <point x="173" y="252" type="curve"/>
      <point x="174" y="249" type="line"/>
      <point x="240.667" y="269"/>
      <point x="277" y="320.667"/>
      <point x="277" y="398" type="curve" smooth="yes"/>
      <point x="275" y="493" type="line" smooth="yes"/>
      <point x="275" y="575.667"/>
      <point x="301.667" y="603"/>
      <point x="387" y="631" type="curve"/>
      <point x="369" y="700" type="line"/>
      <point x="237" y="672"/>
      <point x="184" y="616.333"/>
      <point x="184" y="507" type="curve" smooth="yes"/>
      <point x="185" y="412" type="line" smooth="yes"/>
      <point x="185" y="333.333"/>
      <point x="151.667" y="289.333"/>
      <point x="89" y="288" type="curve" smooth="yes"/>
      <point x="44" y="288" type="line"/>
      <point x="44" y="212" type="line"/>
      <point x="87" y="212" type="line" smooth="yes"/>
      <point x="149.667" y="210.667"/>
      <point x="185" y="165.333"/>
      <point x="185" y="88" type="curve" smooth="yes"/>
      <point x="184" y="-7" type="line" smooth="yes"/>
      <point x="184" y="-120.333"/>
      <point x="238.333" y="-173.333"/>
    </contour>
  </outline>
</glyph>
<glyph name="asciitilde" format="2">
  <advance width="510"/>
  <unicode hex="007E"/>
  <outline>
    <contour>
      <point x="356" y="225" type="curve" smooth="yes"/>
      <point x="430.667" y="225"/>
      <point x="470" y="270"/>
      <point x="470" y="354" type="curve"/>
      <point x="396" y="357" type="line"/>
      <point x="398.667" y="329"/>
      <point x="383.667" y="309"/>
      <point x="361" y="309" type="curve" smooth="yes"/>
      <point x="344" y="309"/>
      <point x="305" y="324.333"/>
      <point x="277" y="335" type="curve" smooth="yes"/>
      <point x="247" y="347"/>
      <point x="195" y="369"/>
      <point x="162" y="369" type="curve" smooth="yes"/>
      <point x="83.333" y="369"/>
      <point x="40" y="317.667"/>
      <point x="40" y="227" type="curve"/>
      <point x="114" y="227" type="line"/>
      <point x="114" y="264.333"/>
      <point x="127" y="285"/>
      <point x="151" y="285" type="curve" smooth="yes"/>
      <point x="167" y="285"/>
      <point x="210.333" y="269.333"/>
      <point x="239" y="258" type="curve" smooth="yes"/>
      <point x="268" y="247"/>
      <point x="325" y="225"/>
    </contour>
  </outline>
</glyph>
<glyph name="cent" format="2">
  <advance width="535"/>
  <unicode hex="00A2"/>
  <outline>
    <contour>
      <point x="295" y="78" type="curve" smooth="yes"/>
      <point x="380.333" y="78"/>
      <point x="467.333" y="121"/>
      <point x="510" y="181" type="curve"/>
      <point x="453" y="251" type="line"/>
      <point x="410.333" y="199"/>
      <point x="359.333" y="171"/>
      <point x="306" y="171" type="curve" smooth="yes"/>
      <point x="214" y="171"/>
      <point x="138" y="249.667"/>
      <point x="138" y="351" type="curve" smooth="yes"/>
      <point x="138" y="453.667"/>
      <point x="209" y="531"/>
      <point x="305" y="531" type="curve" smooth="yes"/>
      <point x="357" y="531"/>
      <point x="421" y="494.667"/>
      <point x="453" y="448" type="curve"/>
      <point x="510" y="518" type="line"/>
      <point x="470" y="583.333"/>
      <point x="388.333" y="624"/>
      <point x="295" y="624" type="curve" smooth="yes"/>
      <point x="149.667" y="624"/>
      <point x="40" y="505.667"/>
      <point x="40" y="351" type="curve" smooth="yes"/>
      <point x="40" y="196.333"/>
      <point x="149.667" y="78"/>
    </contour>
    <contour>
      <point x="239" y="0" type="line"/>
      <point x="336" y="0" type="line"/>
      <point x="336" y="107" type="line"/>
      <point x="329" y="141" type="line"/>
      <point x="329" y="572" type="line"/>
      <point x="336" y="605" type="line"/>
      <point x="336" y="700" type="line"/>
      <point x="239" y="700" type="line"/>
      <point x="239" y="606" type="line"/>
      <point x="246" y="563" type="line"/>
      <point x="246" y="145" type="line"/>
      <point x="239" y="108" type="line"/>
    </contour>
  </outline>
</glyph>
<glyph name="currency" format="2">
  <advance width="550"/>
  <unicode hex="00A4"/>
  <outline>
    <contour>
      <point x="279" y="122" type="curve" smooth="yes"/>
      <point x="377.667" y="122"/>
      <point x="457" y="202"/>
      <point x="457" y="302" type="curve" smooth="yes"/>
      <point x="457" y="400.667"/>
      <point x="376.333" y="482"/>
      <point x="279" y="482" type="curve" smooth="yes"/>
      <point x="180.333" y="482"/>
      <point x="101" y="402"/>
      <point x="101" y="302" type="curve" smooth="yes"/>
      <point x="101" y="202"/>
      <point x="180.333" y="122"/>
    </contour>
    <contour>
      <point x="129" y="82" type="line"/>
      <point x="221" y="179" type="line"/>
      <point x="150" y="250" type="line"/>
      <point x="58" y="152" type="line"/>
    </contour>
    <contour>
      <point x="148" y="359" type="line"/>
      <point x="218" y="429" type="line"/>
      <point x="120" y="521" type="line"/>
      <point x="50" y="451" type="line"/>
    </contour>
    <contour>
      <point x="279" y="210" type="curve" smooth="yes"/>
      <point x="231" y="210"/>
      <point x="197" y="248.667"/>
      <point x="197" y="302" type="curve" smooth="yes"/>
      <point x="197" y="355.333"/>
      <point x="231" y="395"/>
      <point x="279" y="395" type="curve" smooth="yes"/>
      <point x="328.333" y="395"/>
      <point x="362" y="355.333"/>
      <point x="362" y="302" type="curve" smooth="yes"/>
      <point x="362" y="248.667"/>
      <point x="328.333" y="210"/>
    </contour>
    <contour>
      <point x="428" y="90" type="line"/>
      <point x="498" y="160" type="line"/>
      <point x="400" y="252" type="line"/>
      <point x="330" y="182" type="line"/>
    </contour>
    <contour>
      <point x="407" y="362" type="line"/>
      <point x="500" y="460" type="line"/>
      <point x="429" y="530" type="line"/>
      <point x="337" y="432" type="line"/>
    </contour>
  </outline>
</glyph>
<glyph name="copyright" format="2">
  <advance width="786"/>
  <unicode hex="00A9"/>
  <outline>
    <contour>
      <point x="393" y="-7" type="curve" smooth="yes"/>
      <point x="590.333" y="-7"/>
      <point x="750" y="151.333"/>
      <point x="750" y="350" type="curve" smooth="yes"/>
      <point x="750" y="548.667"/>
      <point x="590.333" y="707"/>
      <point x="393" y="707" type="curve" smooth="yes"/>
      <point x="194.333" y="707"/>
      <point x="36" y="548.667"/>
      <point x="36" y="350" type="curve" smooth="yes"/>
      <point x="36" y="151.333"/>
      <point x="194.333" y="-7"/>
    </contour>
    <contour>
      <point x="411" y="142" type="curve" smooth="yes"/>
      <point x="457.667" y="142"/>
      <point x="504" y="157"/>
      <point x="544" y="185" type="curve"/>
      <point x="507" y="261" type="line"/>
      <point x="473.667" y="235.667"/>
      <point x="441.667" y="223"/>
      <point x="411" y="223" type="curve" smooth="yes"/>
      <point x="337.667" y="223"/>
      <point x="283" y="275.333"/>
      <point x="283" y="350" type="curve" smooth="yes"/>
      <point x="283" y="420.667"/>
      <point x="337.667" y="476"/>
      <point x="411" y="476" type="curve" smooth="yes"/>
      <point x="437.667" y="476"/>
      <point x="464.333" y="465"/>
      <point x="503" y="437" type="curve"/>
      <point x="540" y="512" type="line"/>
      <point x="501.333" y="541.333"/>
      <point x="456.333" y="557"/>
      <point x="411" y="557" type="curve" smooth="yes"/>
      <point x="291" y="557"/>
      <point x="197" y="464.667"/>
      <point x="197" y="350" type="curve" smooth="yes"/>
      <point x="197" y="230"/>
      <point x="291" y="142"/>
    </contour>
    <contour>
      <point x="393" y="67" type="curve" smooth="yes"/>
      <point x="235.667" y="67"/>
      <point x="110" y="192.667"/>
      <point x="110" y="350" type="curve" smooth="yes"/>
      <point x="110" y="508.667"/>
      <point x="235.667" y="633"/>
      <point x="393" y="633" type="curve" smooth="yes"/>
      <point x="550.333" y="633"/>
      <point x="676" y="508.667"/>
      <point x="676" y="350" type="curve" smooth="yes"/>
      <point x="676" y="192.667"/>
      <point x="550.333" y="67"/>
    </contour>
  </outline>
</glyph>
<glyph name="logicalnot" format="2">
  <advance width="670"/>
  <unicode hex="00AC"/>
  <outline>
    <contour>
      <point x="515" y="117" type="line"/>
      <point x="620" y="117" type="line"/>
      <point x="620" y="404" type="line"/>
      <point x="50" y="404" type="line"/>
      <point x="50" y="307" type="line"/>
      <point x="534" y="307" type="line"/>
      <point x="515" y="319" type="line"/>
    </contour>
  </outline>
</glyph>
<glyph name="degree" format="2">
  <advance width="532"/>
  <unicode hex="00B0"/>
  <outline>
    <contour>
      <point x="266" y="399" type="curve" smooth="yes"/>
      <point x="354" y="399"/>
      <point x="422" y="467.333"/>
      <point x="422" y="554" type="curve" smooth="yes"/>
      <point x="422" y="640.667"/>
      <point x="355.333" y="709"/>
      <point x="266" y="709" type="curve" smooth="yes"/>
      <point x="176.667" y="709"/>
      <point x="110" y="641"/>
      <point x="110" y="553" type="curve" smooth="yes"/>
      <point x="110" y="467.667"/>
      <point x="178" y="399"/>
    </contour>
    <contour>
      <point x="266" y="466" type="curve" smooth="yes"/>
      <point x="220.667" y="466"/>
      <point x="185" y="505"/>
      <point x="185" y="553" type="curve" smooth="yes"/>
      <point x="185" y="602.333"/>
      <point x="219.333" y="641"/>
      <point x="266" y="641" type="curve" smooth="yes"/>
      <point x="311.333" y="641"/>
      <point x="347" y="602"/>
      <point x="347" y="554" type="curve" smooth="yes"/>
      <point x="347" y="506"/>
      <point x="311.333" y="466"/>
    </contour>
  </outline>
</glyph>
<glyph name="plusminus" format="2">
  <advance width="582"/>
  <unicode hex="00B1"/>
  <outline>
    <contour>
      <point x="50" y="285" type="line"/>
      <point x="532" y="285" type="line"/>
      <point x="532" y="375" type="line"/>
      <point x="50" y="375" type="line"/>
    </contour>
    <contour>
      <point x="50" y="-1" type="line"/>
      <point x="532" y="-1" type="line"/>
      <point x="532" y="91" type="line"/>
      <point x="50" y="91" type="line"/>
    </contour>
    <contour>
      <point x="240" y="143" type="line"/>
      <point x="344" y="143" type="line"/>
      <point x="344" y="534" type="line"/>
      <point x="240" y="534" type="line"/>
    </contour>
  </outline>
</glyph>
<glyph name="micro" format="2">
  <advance width="586"/>
  <unicode hex="00B5"/>
  <outline>
    <contour>
      <point x="80" y="-157" type="line"/>
      <point x="177" y="-157" type="line"/>
      <point x="177" y="62" type="line"/>
      <point x="170" y="49" type="line"/>
      <point x="182" y="14.333"/>
      <point x="227.667" y="-10"/>
      <point x="269" y="-10" type="curve" smooth="yes"/>
      <point x="337" y="-10"/>
      <point x="402" y="27"/>
      <point x="426" y="100" type="curve"/>
      <point x="419" y="114" type="line"/>
      <point x="419" y="0" type="line"/>
      <point x="516" y="0" type="line"/>
      <point x="516" y="525" type="line"/>
      <point x="419" y="525" type="line"/>
      <point x="419" y="222" type="line" smooth="yes"/>
      <point x="419" y="143.333"/>
      <point x="360" y="80"/>
      <point x="284" y="80" type="curve" smooth="yes"/>
      <point x="213.333" y="80"/>
      <point x="177" y="127.333"/>
      <point x="177" y="222" type="curve" smooth="yes"/>
      <point x="177" y="525" type="line"/>
      <point x="80" y="525" type="line"/>
    </contour>
  </outline>
</glyph>
<glyph name="multiply" format="2">
  <advance width="484"/>
  <unicode hex="00D7"/>
  <outline>
    <contour>
      <point x="98" y="71" type="line"/>
      <point x="447" y="422" type="line"/>
      <point x="387" y="486" type="line"/>
      <point x="39" y="136" type="line"/>
    </contour>
    <contour>
      <point x="385" y="78" type="line"/>
      <point x="449" y="137" type="line"/>
      <point x="99" y="486" type="line"/>
      <point x="35" y="426" type="line"/>
    </contour>
  </outline>
</glyph>
<glyph name="Oslash" format="2">
  <advance width="770"/>
  <unicode hex="00D8"/>
  <anchor x="385" y="0" name="bottom"/>
  <anchor x="385" y="700" name="top"/>
  <anchor x="390" y="350" name="center"/>
  <anchor x="562" y="0" name="ogonek"/>
  <anchor x="19" y="700" name="topleft"/>
  <anchor x="761" y="700" name="topright"/>
  <outline>
    <contour>
      <point x="123" y="-33" type="line"/>
      <point x="717" y="694" type="line"/>
      <point x="649" y="741" type="line"/>
      <point x="60" y="20" type="line"/>
    </contour>
    <component base="O" xOffset="-1"/>
  </outline>
</glyph>
<glyph name="eth" format="2">
  <advance width="574"/>
  <unicode hex="00F0"/>
  <outline>
    <contour>
      <point x="287" y="-7" type="curve" smooth="yes"/>
      <point x="431" y="-7"/>
      <point x="534" y="110.333"/>
      <point x="534" y="281" type="curve" smooth="yes"/>
      <point x="534" y="525"/>
      <point x="408.333" y="692"/>
      <point x="211" y="740" type="curve"/>
      <point x="169" y="662" type="line"/>
      <point x="341" y="610"/>
      <point x="410" y="533.667"/>
      <point x="418" y="379" type="curve"/>
      <point x="468" y="348" type="line"/>
      <point x="446.667" y="458.667"/>
      <point x="375" y="528"/>
      <point x="275" y="528" type="curve" smooth="yes"/>
      <point x="151" y="528"/>
      <point x="40" y="406"/>
      <point x="40" y="262" type="curve" smooth="yes"/>
      <point x="40" y="111.333"/>
      <point x="149.667" y="-7"/>
    </contour>
    <contour>
      <point x="287" y="89" type="curve" smooth="yes"/>
      <point x="203" y="89"/>
      <point x="137" y="164.667"/>
      <point x="137" y="262" type="curve" smooth="yes"/>
      <point x="137" y="358"/>
      <point x="203" y="432"/>
      <point x="287" y="432" type="curve" smooth="yes"/>
      <point x="371" y="432"/>
      <point x="437" y="356.667"/>
      <point x="437" y="262" type="curve" smooth="yes"/>
      <point x="437" y="164.667"/>
      <point x="371" y="89"/>
    </contour>
    <contour>
      <point x="156" y="528" type="line"/>
      <point x="353" y="574" type="line"/>
      <point x="394" y="591" type="line"/>
      <point x="507" y="617" type="line"/>
      <point x="489" y="683" type="line"/>
      <point x="343" y="650" type="line"/>
      <point x="288" y="630" type="line"/>
      <point x="143" y="593" type="line"/>
    </contour>
  </outline>
</glyph>
<glyph name="eogonek" format="2">
  <advance width="586"/>
  <unicode hex="0119"/>
  <anchor x="293" y="525" name="top"/>
  <anchor x="293" y="0" name="bottom"/>
  <anchor x="499" y="0" name="ogonek"/>
  <outline>
    <contour>
      <point x="392" y="-200" type="curve" smooth="yes"/>
      <point x="444" y="-200"/>
      <point x="487" y="-171"/>
      <point x="505" y="-138" type="curve"/>
      <point x="449" y="-98" type="line"/>
      <point x="437" y="-114"/>
      <point x="427" y="-123"/>
      <point x="409" y="-123" type="curve" smooth="yes"/>
      <point x="386" y="-123"/>
      <point x="370" y="-106"/>
      <point x="370" y="-81" type="curve" smooth="yes"/>
      <point x="370" y="-38"/>
      <point x="410" y="-1"/>
      <point x="491" y="45" type="curve"/>
      <point x="469" y="80" type="line"/>
      <point x="365" y="35"/>
      <point x="279" y="-11"/>
      <point x="279" y="-101" type="curve" smooth="yes"/>
      <point x="279" y="-155"/>
      <point x="320" y="-200"/>
    </contour>
    <component base="e"/>
  </outline>
</glyph>
<glyph name="Hbar" format="2">
  <advance width="857"/>
  <unicode hex="0126"/>
  <anchor x="429" y="0" name="bottom"/>
  <anchor x="429" y="350" name="center"/>
  <anchor x="429" y="700" name="top"/>
  <anchor x="68" y="700" name="topleft"/>
  <outline>
    <contour>
      <point x="57" y="468" type="line"/>
      <point x="163" y="468" type="line"/>
      <point x="209" y="478" type="line"/>
      <point x="625" y="478" type="line"/>
      <point x="656" y="468" type="line"/>
      <point x="800" y="468" type="line"/>
      <point x="800" y="572" type="line"/>
      <point x="649" y="572" type="line"/>
      <point x="613" y="562" type="line"/>
      <point x="219" y="562" type="line"/>
      <point x="173" y="572" type="line"/>
      <point x="57" y="572" type="line"/>
    </contour>
    <component base="H" xOffset="48"/>
  </outline>
</glyph>
<glyph name="kgreenlandic" format="2">
  <advance width="556"/>
  <unicode hex="0138"/>
  <anchor x="278" y="0" name="bottom"/>
  <anchor x="278" y="525" name="top"/>
  <outline>
    <contour>
      <point x="162" y="154" type="line"/>
      <point x="529" y="525" type="line"/>
      <point x="408" y="525" type="line"/>
      <point x="157" y="256" type="line"/>
    </contour>
    <contour>
      <point x="74" y="0" type="line"/>
      <point x="171" y="0" type="line"/>
      <point x="171" y="525" type="line"/>
      <point x="74" y="525" type="line"/>
    </contour>
    <contour>
      <point x="411" y="0" type="line"/>
      <point x="534" y="-1" type="line"/>
      <point x="287" y="319" type="line"/>
      <point x="218" y="272" type="line"/>
    </contour>
  </outline>
</glyph>
<glyph name="Eng" format="2">
  <advance width="793"/>
  <unicode hex="014A"/>
  <outline>
    <contour>
      <point x="510" y="-197" type="line"/>
      <point x="620.667" y="-197"/>
      <point x="695" y="-128"/>
      <point x="695" y="-24" type="curve" smooth="yes"/>
      <point x="695" y="700" type="line"/>
      <point x="587" y="700" type="line"/>
      <point x="587" y="470" type="line" smooth="yes"/>
      <point x="587" y="323.333"/>
      <point x="593.667" y="200.667"/>
      <point x="607" y="118" type="curve"/>
      <point x="623" y="127" type="line"/>
      <point x="195" y="700" type="line"/>
      <point x="98" y="700" type="line"/>
      <point x="98" y="0" type="line"/>
      <point x="206" y="0" type="line"/>
      <point x="206" y="291" type="line" smooth="yes"/>
      <point x="206" y="341"/>
      <point x="197" y="455"/>
      <point x="186" y="566" type="curve"/>
      <point x="175" y="552" type="line"/>
      <point x="596" y="0" type="line"/>
      <point x="587" y="76" type="line"/>
      <point x="587" y="1" type="line" smooth="yes"/>
      <point x="587" y="-77.667"/>
      <point x="548.333" y="-118"/>
      <point x="471" y="-118" type="curve"/>
    </contour>
  </outline>
</glyph>
<glyph name="OE" format="2">
  <advance width="1027"/>
  <unicode hex="0152"/>
  <anchor x="514" y="0" name="bottom"/>
  <anchor x="514" y="700" name="top"/>
  <outline>
    <contour>
      <point x="375" y="0" type="curve" smooth="yes"/>
      <point x="952" y="0" type="line"/>
      <point x="952" y="104" type="line"/>
      <point x="619" y="104" type="line"/>
      <point x="619" y="307" type="line"/>
      <point x="897" y="307" type="line"/>
      <point x="897" y="411" type="line"/>
      <point x="619" y="411" type="line"/>
      <point x="619" y="596" type="line"/>
      <point x="952" y="596" type="line"/>
      <point x="952" y="700" type="line"/>
      <point x="395" y="700" type="line" smooth="yes"/>
      <point x="184.333" y="700"/>
      <point x="48" y="558"/>
      <point x="48" y="350" type="curve" smooth="yes"/>
      <point x="48" y="140.667"/>
      <point x="175" y="0"/>
    </contour>
    <contour>
      <point x="158" y="350" type="curve" smooth="yes"/>
      <point x="158" y="502"/>
      <point x="246" y="596"/>
      <point x="398" y="596" type="curve" smooth="yes"/>
      <point x="511" y="596" type="line"/>
      <point x="511" y="104" type="line"/>
      <point x="378" y="104" type="line" smooth="yes"/>
      <point x="238" y="104"/>
      <point x="158" y="196.667"/>
    </contour>
  </outline>
</glyph>
<glyph name="oe" format="2">
  <advance width="1017"/>
  <unicode hex="0153"/>
  <anchor x="509" y="0" name="bottom"/>
  <anchor x="509" y="525" name="top"/>
  <outline>
    <contour>
      <point x="308" y="-10" type="curve" smooth="yes"/>
      <point x="408" y="-10"/>
      <point x="492" y="40"/>
      <point x="538" y="120" type="curve"/>
      <point x="506" y="119" type="line"/>
      <point x="552" y="39"/>
      <point x="639" y="-10"/>
      <point x="748" y="-10" type="curve" smooth="yes"/>
      <point x="822" y="-10"/>
      <point x="906" y="24"/>
      <point x="955" y="71" type="curve"/>
      <point x="903" y="144" type="line"/>
      <point x="851" y="99"/>
      <point x="810" y="84"/>
      <point x="758" y="84" type="curve" smooth="yes"/>
      <point x="635" y="84"/>
      <point x="574" y="163"/>
      <point x="574" y="266" type="curve" smooth="yes"/>
      <point x="574" y="376"/>
      <point x="633" y="442"/>
      <point x="729" y="442" type="curve" smooth="yes"/>
      <point x="807" y="442"/>
      <point x="872" y="392"/>
      <point x="872" y="318" type="curve" smooth="yes"/>
      <point x="872" y="275" type="line"/>
      <point x="917" y="320" type="line"/>
      <point x="562" y="320" type="line"/>
      <point x="558" y="238" type="line"/>
      <point x="976" y="238" type="line"/>
      <point x="977" y="282" type="line" smooth="yes"/>
      <point x="980" y="429"/>
      <point x="875" y="536"/>
      <point x="733" y="536" type="curve" smooth="yes"/>
      <point x="636" y="536"/>
      <point x="558" y="486"/>
      <point x="507" y="405" type="curve"/>
      <point x="539" y="405" type="line"/>
      <point x="493" y="485"/>
      <point x="409" y="536"/>
      <point x="308" y="536" type="curve" smooth="yes"/>
      <point x="154.667" y="536"/>
      <point x="40" y="420.333"/>
      <point x="40" y="263" type="curve" smooth="yes"/>
      <point x="40" y="105.667"/>
      <point x="154.667" y="-10"/>
    </contour>
    <contour>
      <point x="308" y="84" type="curve" smooth="yes"/>
      <point x="213.333" y="84"/>
      <point x="143.667" y="160.333"/>
      <point x="145" y="263" type="curve" smooth="yes"/>
      <point x="143.667" y="365.667"/>
      <point x="213.333" y="442"/>
      <point x="308" y="442" type="curve" smooth="yes"/>
      <point x="402.667" y="442"/>
      <point x="471.333" y="367"/>
      <point x="470" y="263" type="curve" smooth="yes"/>
      <point x="471.333" y="160.333"/>
      <point x="402.667" y="84"/>
    </contour>
  </outline>
</glyph>
<glyph name="tbar" format="2">
  <advance width="384"/>
  <unicode hex="0167"/>
  <anchor x="192" y="0" name="bottom"/>
  <anchor x="192" y="263" name="center"/>
  <anchor x="192" y="612" name="top"/>
  <anchor x="269" y="787" name="topright"/>
  <outline>
    <contour>
      <point x="58" y="218" type="line"/>
      <point x="326" y="218" type="line"/>
      <point x="326" y="308" type="line"/>
      <point x="58" y="308" type="line"/>
    </contour>
    <component base="t"/>
  </outline>
</glyph>
<glyph name="florin" format="2">
  <advance width="519"/>
  <unicode hex="0192"/>
  <outline>
    <contour>
      <point x="96" y="-31" type="curve" smooth="yes"/>
      <point x="182.667" y="-31"/>
      <point x="234.333" y="17.667"/>
      <point x="253" y="119" type="curve" smooth="yes"/>
      <point x="324" y="523" type="line" smooth="yes"/>
      <point x="334.667" y="581.667"/>
      <point x="363.667" y="608"/>
      <point x="417" y="608" type="curve" smooth="yes"/>
      <point x="435.667" y="608"/>
      <point x="456.667" y="603.667"/>
      <point x="486" y="593" type="curve"/>
      <point x="516" y="657" type="line"/>
      <point x="481.333" y="681"/>
      <point x="443.333" y="692"/>
      <point x="398" y="692" type="curve" smooth="yes"/>
      <point x="300.667" y="692"/>
      <point x="245.667" y="642"/>
      <point x="227" y="538" type="curve" smooth="yes"/>
      <point x="155" y="129" type="line" smooth="yes"/>
      <point x="145.667" y="81"/>
      <point x="123.333" y="54"/>
      <point x="90" y="54" type="curve" smooth="yes"/>
      <point x="67.333" y="54"/>
      <point x="52" y="58.333"/>
      <point x="32" y="69" type="curve"/>
      <point x="4" y="1" type="line"/>
      <point x="25.333" y="-17.667"/>
      <point x="61.333" y="-31"/>
    </contour>
    <contour>
      <point x="71" y="362" type="line"/>
      <point x="440" y="361" type="line"/>
      <point x="440" y="444" type="line"/>
      <point x="71" y="445" type="line"/>
    </contour>
  </outline>
</glyph>
<glyph name="uhorn" format="2">
  <advance width="605"/>
  <unicode hex="01B0"/>
  <anchor x="303" y="0" name="bottom"/>
  <anchor x="303" y="525" name="top"/>
  <outline>
    <contour>
      <point x="256" y="-10" type="curve" smooth="yes"/>
      <point x="340" y="-10"/>
      <point x="414" y="41"/>
      <point x="443" y="109" type="curve"/>
      <point x="430" y="129" type="line"/>
      <point x="430" y="0" type="line"/>
      <point x="533" y="0" type="line"/>
      <point x="533" y="527" type="line"/>
      <point x="503" y="470" type="line"/>
      <point x="580" y="493"/>
      <point x="610" y="559"/>
      <point x="610" y="639" type="curve"/>
      <point x="528" y="639" type="line"/>
      <point x="528" y="563"/>
      <point x="496" y="525"/>
      <point x="430" y="525" type="curve"/>
      <point x="430" y="209" type="line" smooth="yes"/>
      <point x="430" y="133"/>
      <point x="374" y="80"/>
      <point x="298" y="80" type="curve" smooth="yes"/>
      <point x="220.667" y="80"/>
      <point x="175" y="137"/>
      <point x="175" y="229" type="curve" smooth="yes"/>
      <point x="175" y="525" type="line"/>
      <point x="72" y="525" type="line"/>
      <point x="72" y="201" type="line" smooth="yes"/>
      <point x="72" y="71.667"/>
      <point x="144" y="-10"/>
    </contour>
  </outline>
</glyph>
<glyph name="Oogonek" format="2">
  <advance width="782"/>
  <unicode hex="01EA"/>
  <anchor x="391" y="700" name="top"/>
  <anchor x="391" y="0" name="bottom"/>
  <anchor x="391" y="350" name="center"/>
  <anchor x="563" y="0" name="ogonek"/>
  <anchor x="20" y="700" name="topleft"/>
  <anchor x="762" y="700" name="topright"/>
  <outline>
    <contour>
      <point x="472" y="-200" type="curve" smooth="yes"/>
      <point x="520" y="-200"/>
      <point x="567" y="-171"/>
      <point x="581" y="-138" type="curve"/>
      <point x="525" y="-98" type="line"/>
      <point x="514" y="-114"/>
      <point x="502" y="-123"/>
      <point x="488" y="-123" type="curve" smooth="yes"/>
      <point x="466" y="-123"/>
      <point x="454" y="-108"/>
      <point x="454" y="-84" type="curve" smooth="yes"/>
      <point x="454" y="-44"/>
      <point x="493" y="-3"/>
      <point x="570" y="40" type="curve"/>
      <point x="532" y="85" type="line"/>
      <point x="442" y="38"/>
      <point x="363" y="-16"/>
      <point x="363" y="-97" type="curve" smooth="yes"/>
      <point x="363" y="-164"/>
      <point x="414" y="-200"/>
    </contour>
    <component base="O"/>
  </outline>
</glyph>
<glyph name="jdotless" format="2">
  <advance width="263"/>
  <unicode hex="0237"/>
  <anchor x="132" y="-230" name="bottom"/>
  <anchor x="138" y="525" name="top"/>
  <outline>
    <contour>
      <point x="8" y="-197" type="line"/>
      <point x="114.667" y="-197"/>
      <point x="188" y="-126.667"/>
      <point x="188" y="-24" type="curve" smooth="yes"/>
      <point x="188" y="525" type="line"/>
      <point x="85" y="525" type="line"/>
      <point x="85" y="1" type="line" smooth="yes"/>
      <point x="85" y="-77.667"/>
      <point x="46.333" y="-118"/>
      <point x="-31" y="-118" type="curve"/>
    </contour>
  </outline>
</glyph>
<glyph name="nhookleft" format="2">
  <advance width="608"/>
  <unicode hex="0272"/>
  <outline>
    <contour>
      <point x="8" y="-197" type="line"/>
      <point x="114.667" y="-197"/>
      <point x="188" y="-126.667"/>
      <point x="188" y="-24" type="curve" smooth="yes"/>
      <point x="188" y="318" type="line" smooth="yes"/>
      <point x="188" y="387.333"/>
      <point x="247.333" y="442"/>
      <point x="326" y="442" type="curve" smooth="yes"/>
      <point x="400.667" y="446"/>
      <point x="437" y="403.667"/>
      <point x="437" y="313" type="curve" smooth="yes"/>
      <point x="437" y="0" type="line"/>
      <point x="540" y="0" type="line"/>
      <point x="540" y="320" type="line" smooth="yes"/>
      <point x="540" y="465.333"/>
      <point x="480" y="536"/>
      <point x="360" y="536" type="curve" smooth="yes"/>
      <point x="282" y="536"/>
      <point x="202" y="483"/>
      <point x="175" y="419" type="curve"/>
      <point x="188" y="398" type="line"/>
      <point x="188" y="525" type="line"/>
      <point x="85" y="525" type="line"/>
      <point x="85" y="1" type="line" smooth="yes"/>
      <point x="85" y="-77.667"/>
      <point x="46.333" y="-118"/>
      <point x="-31" y="-118" type="curve"/>
    </contour>
  </outline>
</glyph>
<glyph name="ringhalfright" format="2">
  <advance width="221"/>
  <unicode hex="02BE"/>
  <outline>
    <contour>
      <point x="62" y="530" type="line"/>
      <point x="119.333" y="530"/>
      <point x="171" y="579"/>
      <point x="171" y="635" type="curve" smooth="yes"/>
      <point x="171" y="692.333"/>
      <point x="121.667" y="739.667"/>
      <point x="63" y="741" type="curve"/>
      <point x="62" y="679" type="line"/>
      <point x="90" y="679"/>
      <point x="109" y="661.667"/>
      <point x="109" y="635" type="curve" smooth="yes"/>
      <point x="109" y="609.667"/>
      <point x="88.667" y="591"/>
      <point x="62" y="591" type="curve"/>
    </contour>
  </outline>
</glyph>
<glyph name="circumflexcomb" format="2">
  <unicode hex="0302"/>
  <anchor x="250" y="525" name="_top"/>
  <anchor x="250" y="700" name="top"/>
  <outline>
    <contour>
      <point x="130" y="597" type="line"/>
      <point x="265" y="670" type="line"/>
      <point x="235" y="670" type="line"/>
      <point x="370" y="597" type="line"/>
      <point x="408" y="630" type="line"/>
      <point x="293" y="743" type="line"/>
      <point x="207" y="743" type="line"/>
      <point x="92" y="630" type="line"/>
    </contour>
  </outline>
</glyph>
<glyph name="tildecomb" format="2">
  <unicode hex="0303"/>
  <anchor x="251" y="525" name="_top"/>
  <anchor x="251" y="710" name="top"/>
  <outline>
    <contour>
      <point x="302" y="615" type="curve" smooth="yes"/>
      <point x="367" y="615"/>
      <point x="409" y="671"/>
      <point x="412" y="736" type="curve"/>
      <point x="344" y="746" type="line"/>
      <point x="339" y="708"/>
      <point x="325" y="688"/>
      <point x="307" y="688" type="curve" smooth="yes"/>
      <point x="296" y="688"/>
      <point x="287" y="696"/>
      <point x="261" y="718" type="curve" smooth="yes"/>
      <point x="241" y="734"/>
      <point x="226" y="746"/>
      <point x="199" y="746" type="curve" smooth="yes"/>
      <point x="134" y="746"/>
      <point x="92" y="690"/>
      <point x="89" y="625" type="curve"/>
      <point x="157" y="615" type="line"/>
      <point x="162" y="653"/>
      <point x="176" y="673"/>
      <point x="194" y="673" type="curve" smooth="yes"/>
      <point x="205" y="673"/>
      <point x="214" y="665"/>
      <point x="240" y="643" type="curve" smooth="yes"/>
      <point x="260" y="627"/>
      <point x="275" y="615"/>
    </contour>
  </outline>
</glyph>
<glyph name="dotaccentcomb" format="2">
  <unicode hex="0307"/>
  <anchor x="250" y="525" name="_top"/>
  <anchor x="250" y="710" name="top"/>
  <outline>
    <contour>
      <point x="250" y="641" type="curve" smooth="yes"/>
      <point x="293" y="641"/>
      <point x="319" y="667"/>
      <point x="319" y="706" type="curve" smooth="yes"/>
      <point x="319" y="747"/>
      <point x="294" y="771"/>
      <point x="250" y="771" type="curve" smooth="yes"/>
      <point x="207" y="771"/>
      <point x="181" y="745"/>
      <point x="181" y="706" type="curve" smooth="yes"/>
      <point x="181" y="665"/>
      <point x="206" y="641"/>
    </contour>
  </outline>
</glyph>
<glyph name="dieresiscomb" format="2">
  <unicode hex="0308"/>
  <anchor x="250" y="525" name="_top"/>
  <anchor x="250" y="710" name="top"/>
  <outline>
    <contour>
      <point x="350" y="642" type="curve" smooth="yes"/>
      <point x="392" y="642"/>
      <point x="419" y="668"/>
      <point x="419" y="707" type="curve" smooth="yes"/>
      <point x="419" y="748"/>
      <point x="394" y="772"/>
      <point x="350" y="772" type="curve" smooth="yes"/>
      <point x="307" y="772"/>
      <point x="281" y="746"/>
      <point x="281" y="707" type="curve" smooth="yes"/>
      <point x="281" y="666"/>
      <point x="306" y="642"/>
    </contour>
    <contour>
      <point x="150" y="642" type="curve" smooth="yes"/>
      <point x="192" y="642"/>
      <point x="219" y="668"/>
      <point x="219" y="707" type="curve" smooth="yes"/>
      <point x="219" y="748"/>
      <point x="194" y="772"/>
      <point x="150" y="772" type="curve" smooth="yes"/>
      <point x="107" y="772"/>
      <point x="81" y="746"/>
      <point x="81" y="707" type="curve" smooth="yes"/>
      <point x="81" y="666"/>
      <point x="106" y="642"/>
    </contour>
  </outline>
</glyph>
<glyph name="hungarumlautcomb" format="2">
  <unicode hex="030B"/>
  <anchor x="251" y="525" name="_top"/>
  <anchor x="251" y="700" name="top"/>
  <outline>
    <contour>
      <point x="280" y="596" type="line"/>
      <point x="454" y="690" type="line"/>
      <point x="389" y="772" type="line"/>
      <point x="246" y="647" type="line"/>
    </contour>
    <contour>
      <point x="81" y="596" type="line"/>
      <point x="255" y="690" type="line"/>
      <point x="190" y="772" type="line"/>
      <point x="47" y="647" type="line"/>
    </contour>
  </outline>
</glyph>
<glyph name="caroncomb" format="2">
  <unicode hex="030C"/>
  <anchor x="250" y="525" name="_top"/>
  <anchor x="250" y="700" name="top"/>
  <outline>
    <contour>
      <point x="207" y="597" type="line"/>
      <point x="293" y="597" type="line"/>
      <point x="398" y="710" type="line"/>
      <point x="360" y="743" type="line"/>
      <point x="235" y="670" type="line"/>
      <point x="265" y="670" type="line"/>
      <point x="140" y="743" type="line"/>
      <point x="102" y="710" type="line"/>
    </contour>
  </outline>
</glyph>
<glyph name="horncomb" format="2">
  <unicode hex="031B"/>
  <anchor x="192" y="502" name="_topright"/>
  <anchor x="392" y="616" name="topright"/>
  <outline>
    <contour>
      <point x="192" y="437" type="line"/>
      <point x="323" y="437"/>
      <point x="372" y="513"/>
      <point x="372" y="616" type="curve"/>
      <point x="290" y="616" type="line"/>
      <point x="290" y="540"/>
      <point x="258" y="502"/>
      <point x="192" y="502" type="curve"/>
    </contour>
  </outline>
</glyph>
<glyph name="dieresisbelowcomb" format="2">
  <unicode hex="0324"/>
  <anchor x="300" y="0" name="_bottom"/>
  <anchor x="300" y="-206" name="bottom"/>
  <outline>
    <contour>
      <point x="400" y="-206" type="curve" smooth="yes"/>
      <point x="442" y="-206"/>
      <point x="469" y="-180"/>
      <point x="469" y="-141" type="curve" smooth="yes"/>
      <point x="469" y="-100"/>
      <point x="444" y="-76"/>
      <point x="400" y="-76" type="curve" smooth="yes"/>
      <point x="357" y="-76"/>
      <point x="331" y="-102"/>
      <point x="331" y="-141" type="curve" smooth="yes"/>
      <point x="331" y="-182"/>
      <point x="356" y="-206"/>
    </contour>
    <contour>
      <point x="200" y="-206" type="curve" smooth="yes"/>
      <point x="242" y="-206"/>
      <point x="269" y="-180"/>
      <point x="269" y="-141" type="curve" smooth="yes"/>
      <point x="269" y="-100"/>
      <point x="244" y="-76"/>
      <point x="200" y="-76" type="curve" smooth="yes"/>
      <point x="157" y="-76"/>
      <point x="131" y="-102"/>
      <point x="131" y="-141" type="curve" smooth="yes"/>
      <point x="131" y="-182"/>
      <point x="156" y="-206"/>
    </contour>
  </outline>
</glyph>
<glyph name="Germandbls" format="2">
  <advance width="762"/>
  <unicode hex="1E9E"/>
  <anchor x="381" y="0" name="bottom"/>
  <anchor x="381" y="700" name="top"/>
  <outline>
    <contour>
      <point x="490" y="-10" type="curve" smooth="yes"/>
      <point x="607.333" y="-10"/>
      <point x="707" y="78.667"/>
      <point x="707" y="184" type="curve" smooth="yes"/>
      <point x="707" y="297"/>
      <point x="651" y="335"/>
      <point x="545" y="384" type="curve" smooth="yes"/>
      <point x="478" y="415"/>
      <point x="445" y="446"/>
      <point x="445" y="486" type="curve" smooth="yes"/>
      <point x="445" y="543.333"/>
      <point x="515.667" y="589"/>
      <point x="641" y="609" type="curve"/>
      <point x="636" y="682" type="line"/>
      <point x="568" y="711.333"/>
      <point x="489.667" y="726"/>
      <point x="407" y="726" type="curve" smooth="yes"/>
      <point x="221.667" y="726"/>
      <point x="100" y="575"/>
      <point x="99" y="350" type="curve" smooth="yes"/>
      <point x="98" y="1" type="line"/>
      <point x="206" y="1" type="line"/>
      <point x="208" y="343" type="line" smooth="yes"/>
      <point x="209" y="523"/>
      <point x="290.333" y="634.667"/>
      <point x="417" y="632" type="curve" smooth="yes"/>
      <point x="474.333" y="632"/>
      <point x="548.333" y="621"/>
      <point x="591" y="605" type="curve"/>
      <point x="541" y="643" type="line"/>
      <point x="419.667" y="632.333"/>
      <point x="338" y="564"/>
      <point x="338" y="460" type="curve" smooth="yes"/>
      <point x="338" y="385.333"/>
      <point x="373" y="343"/>
      <point x="469" y="291" type="curve" smooth="yes"/>
      <point x="569" y="237"/>
      <point x="602" y="219"/>
      <point x="602" y="171" type="curve" smooth="yes"/>
      <point x="602" y="119"/>
      <point x="558" y="87"/>
      <point x="489" y="87" type="curve" smooth="yes"/>
      <point x="446.333" y="87"/>
      <point x="395.333" y="115"/>
      <point x="362" y="155" type="curve"/>
      <point x="295" y="75" type="line"/>
      <point x="335" y="23"/>
      <point x="412.667" y="-10"/>
    </contour>
  </outline>
</glyph>
<glyph name="quoteleft" format="2">
  <advance width="241"/>
  <unicode hex="2018"/>
  <outline>
    <contour>
      <point x="139" y="459" type="curve" smooth="yes"/>
      <point x="175" y="459"/>
      <point x="200" y="480"/>
      <point x="200" y="512" type="curve" smooth="yes"/>
      <point x="200" y="529.333"/>
      <point x="192.333" y="543"/>
      <point x="163" y="567" type="curve" smooth="yes"/>
      <point x="151" y="577"/>
      <point x="132" y="591"/>
      <point x="132" y="608" type="curve" smooth="yes"/>
      <point x="132" y="630.667"/>
      <point x="169" y="665"/>
      <point x="221" y="689" type="curve"/>
      <point x="183" y="735" type="line"/>
      <point x="101.667" y="709.667"/>
      <point x="40" y="641.333"/>
      <point x="40" y="572" type="curve" smooth="yes"/>
      <point x="40" y="505.333"/>
      <point x="83" y="459"/>
    </contour>
  </outline>
</glyph>
<glyph name="guilsinglleft" format="2">
  <advance width="273"/>
  <unicode hex="2039"/>
  <outline>
    <contour>
      <point x="170" y="50" type="line"/>
      <point x="233" y="95" type="line"/>
      <point x="114" y="266" type="line"/>
      <point x="113" y="255" type="line"/>
      <point x="232" y="426" type="line"/>
      <point x="169" y="471" type="line"/>
      <point x="11" y="259" type="line"/>
      <point x="11" y="257" type="line"/>
    </contour>
  </outline>
</glyph>
<glyph name="naira" format="2">
  <advance width="795"/>
  <unicode hex="20A6"/>
  <anchor x="397" y="0" name="bottom"/>
  <anchor x="397" y="700" name="top"/>
  <outline>
    <contour>
      <point x="10" y="314" type="line"/>
      <point x="102" y="314" type="line"/>
      <point x="132" y="321" type="line"/>
      <point x="646" y="321" type="line"/>
      <point x="687" y="314" type="line"/>
      <point x="785" y="314" type="line"/>
      <point x="785" y="407" type="line"/>
      <point x="692" y="407" type="line"/>
      <point x="650" y="400" type="line"/>
      <point x="138" y="400" type="line"/>
      <point x="104" y="407" type="line"/>
      <point x="10" y="407" type="line"/>
    </contour>
    <component base="N"/>
  </outline>
</glyph>
<glyph name="dong" format="2">
  <advance width="491"/>
  <unicode hex="20AB"/>
  <outline>
    <contour>
      <point x="191" y="146" type="curve" smooth="yes"/>
      <point x="255" y="146"/>
      <point x="315" y="210"/>
      <point x="315" y="262" type="curve"/>
      <point x="295" y="266" type="line"/>
      <point x="295" y="156" type="line"/>
      <point x="392" y="156" type="line"/>
      <point x="392" y="700" type="line"/>
      <point x="295" y="700" type="line"/>
      <point x="295" y="404" type="line"/>
      <point x="325" y="377" type="line"/>
      <point x="310.333" y="450.333"/>
      <point x="260.333" y="497"/>
      <point x="195" y="497" type="curve" smooth="yes"/>
      <point x="109.667" y="497"/>
      <point x="40" y="419.667"/>
      <point x="40" y="321" type="curve" smooth="yes"/>
      <point x="40" y="225"/>
      <point x="111" y="146"/>
    </contour>
    <contour>
      <point x="41" y="0" type="line"/>
      <point x="430" y="0" type="line"/>
      <point x="430" y="78" type="line"/>
      <point x="41" y="78" type="line"/>
    </contour>
    <contour>
      <point x="216" y="227" type="curve" smooth="yes"/>
      <point x="169.333" y="227"/>
      <point x="137" y="267.667"/>
      <point x="137" y="321" type="curve" smooth="yes"/>
      <point x="137" y="377"/>
      <point x="169.333" y="417"/>
      <point x="216" y="417" type="curve" smooth="yes"/>
      <point x="264" y="417"/>
      <point x="300" y="374.333"/>
      <point x="300" y="321" type="curve" smooth="yes"/>
      <point x="300" y="270.333"/>
      <point x="262.667" y="227"/>
    </contour>
    <contour>
      <point x="203" y="534" type="line"/>
      <point x="466" y="534" type="line"/>
      <point x="466" y="614" type="line"/>
      <point x="203" y="614" type="line"/>
    </contour>
  </outline>
</glyph>
<glyph name="euro" format="2">
  <advance width="646"/>
  <unicode hex="20AC"/>
  <outline>
    <contour>
      <point x="429" y="-10" type="curve" smooth="yes"/>
      <point x="483.667" y="-10"/>
      <point x="541.667" y="7.667"/>
      <point x="591" y="37" type="curve"/>
      <point x="541" y="121" type="line"/>
      <point x="507.667" y="98.333"/>
      <point x="470.333" y="86"/>
      <point x="429" y="86" type="curve" smooth="yes"/>
      <point x="286.333" y="86"/>
      <point x="189" y="190"/>
      <point x="189" y="350" type="curve" smooth="yes"/>
      <point x="189" y="502"/>
      <point x="289" y="610"/>
      <point x="429" y="610" type="curve" smooth="yes"/>
      <point x="467.667" y="610"/>
      <point x="507.667" y="598.667"/>
      <point x="541" y="576" type="curve"/>
      <point x="590" y="659" type="line"/>
      <point x="543.333" y="689.667"/>
      <point x="486.333" y="706"/>
      <point x="429" y="706" type="curve" smooth="yes"/>
      <point x="235.667" y="706"/>
      <point x="92" y="554"/>
      <point x="92" y="350" type="curve" smooth="yes"/>
      <point x="92" y="135.333"/>
      <point x="233" y="-10"/>
    </contour>
    <contour>
      <point x="417" y="221" type="line"/>
      <point x="417" y="314" type="line"/>
      <point x="15" y="316" type="line"/>
      <point x="15" y="222" type="line"/>
    </contour>
    <contour>
      <point x="417" y="367" type="line"/>
      <point x="417" y="460" type="line"/>
      <point x="15" y="461" type="line"/>
      <point x="15" y="368" type="line"/>
    </contour>
  </outline>
</glyph>
<glyph name="guarani" format="2">
  <advance width="766"/>
  <unicode hex="20B2"/>
  <outline>
    <contour>
      <point x="411" y="-10" type="curve" smooth="yes"/>
      <point x="585.667" y="-10"/>
      <point x="723" y="115"/>
      <point x="723" y="299" type="curve" smooth="yes"/>
      <point x="723" y="317.667"/>
      <point x="722" y="336.333"/>
      <point x="718" y="359" type="curve"/>
      <point x="408" y="359" type="line"/>
      <point x="408" y="252" type="line"/>
      <point x="622" y="252" type="line"/>
      <point x="607" y="266" type="line"/>
      <point x="607" y="246" type="line" smooth="yes"/>
      <point x="607" y="162"/>
      <point x="519.333" y="95"/>
      <point x="414" y="95" type="curve" smooth="yes"/>
      <point x="274" y="95"/>
      <point x="158" y="210"/>
      <point x="158" y="350" type="curve" smooth="yes"/>
      <point x="158" y="492.667"/>
      <point x="267.333" y="601"/>
      <point x="410" y="601" type="curve" smooth="yes"/>
      <point x="476.667" y="601"/>
      <point x="542" y="571.333"/>
      <point x="602" y="514" type="curve"/>
      <point x="672" y="587" type="line"/>
      <point x="620" y="657.667"/>
      <point x="516.667" y="706"/>
      <point x="410" y="706" type="curve" smooth="yes"/>
      <point x="206" y="706"/>
      <point x="48" y="551.333"/>
      <point x="48" y="350" type="curve" smooth="yes"/>
      <point x="48" y="147.333"/>
      <point x="207" y="-10"/>
    </contour>
    <contour>
      <point x="319" y="-136" type="line"/>
      <point x="416" y="-136" type="line"/>
      <point x="416" y="797" type="line"/>
      <point x="319" y="797" type="line"/>
    </contour>
  </outline>
</glyph>
<glyph name="cedi" format="2">
  <advance width="679"/>
  <unicode hex="20B5"/>
  <anchor x="376" y="0" name="bottom"/>
  <anchor x="390" y="700" name="top"/>
  <outline>
    <contour>
      <point x="321" y="-81" type="line"/>
      <point x="428" y="-81" type="line"/>
      <point x="428" y="21" type="line"/>
      <point x="418" y="66" type="line"/>
      <point x="418" y="642" type="line"/>
      <point x="428" y="680" type="line"/>
      <point x="428" y="776" type="line"/>
      <point x="321" y="776" type="line"/>
      <point x="321" y="673" type="line"/>
      <point x="325" y="637" type="line"/>
      <point x="325" y="73" type="line"/>
      <point x="321" y="18" type="line"/>
    </contour>
    <component base="C"/>
  </outline>
</glyph>
<glyph name="rupeeIndian" format="2">
  <advance width="540"/>
  <unicode hex="20B9"/>
  <outline>
    <contour>
      <point x="160" y="263" type="line"/>
      <point x="217" y="263" type="line" smooth="yes"/>
      <point x="338.333" y="263"/>
      <point x="438" y="362.333"/>
      <point x="438" y="477" type="curve" smooth="yes"/>
      <point x="438" y="581"/>
      <point x="337" y="660"/>
      <point x="217" y="660" type="curve"/>
      <point x="316" y="596" type="line"/>
      <point x="506" y="596" type="line"/>
      <point x="506" y="700" type="line"/>
      <point x="68" y="700" type="line"/>
      <point x="68" y="596" type="line"/>
      <point x="199" y="596" type="line" smooth="yes"/>
      <point x="273.667" y="596"/>
      <point x="328" y="547.333"/>
      <point x="328" y="478" type="curve" smooth="yes"/>
      <point x="328" y="415.333"/>
      <point x="285.667" y="367"/>
      <point x="227" y="367" type="curve" smooth="yes"/>
      <point x="119" y="367" type="line"/>
      <point x="119" y="318" type="line"/>
    </contour>
    <contour>
      <point x="347" y="0" type="line"/>
      <point x="478" y="-1" type="line"/>
      <point x="233" y="341" type="line"/>
      <point x="122" y="316" type="line"/>
    </contour>
    <contour>
      <point x="242" y="433" type="line"/>
      <point x="510" y="433" type="line"/>
      <point x="510" y="523" type="line"/>
      <point x="242" y="523" type="line"/>
    </contour>
  </outline>
</glyph>
<glyph name="trademark" format="2">
  <advance width="794"/>
  <unicode hex="2122"/>
  <outline>
    <contour>
      <point x="355" y="340" type="line"/>
      <point x="436" y="340" type="line"/>
      <point x="436" y="643" type="line"/>
      <point x="379" y="643" type="line"/>
      <point x="509" y="418" type="line"/>
      <point x="575" y="418" type="line"/>
      <point x="699" y="635" type="line"/>
      <point x="654" y="635" type="line"/>
      <point x="654" y="340" type="line"/>
      <point x="737" y="340" type="line"/>
      <point x="737" y="700" type="line"/>
      <point x="662" y="700" type="line"/>
      <point x="515" y="452" type="line"/>
      <point x="571" y="452" type="line"/>
      <point x="424" y="700" type="line"/>
      <point x="355" y="700" type="line"/>
    </contour>
    <contour>
      <point x="126" y="340" type="line"/>
      <point x="202" y="340" type="line"/>
      <point x="202" y="676" type="line"/>
      <point x="126" y="676" type="line"/>
    </contour>
    <contour>
      <point x="29" y="626" type="line"/>
      <point x="304" y="626" type="line"/>
      <point x="304" y="700" type="line"/>
      <point x="29" y="700" type="line"/>
    </contour>
  </outline>
</glyph>
<glyph name="partialdiff" format="2">
  <advance width="590"/>
  <unicode hex="2202"/>
  <outline>
    <contour>
      <point x="294" y="-7" type="curve" smooth="yes"/>
      <point x="444.667" y="-7"/>
      <point x="550" y="120"/>
      <point x="550" y="280" type="curve" smooth="yes"/>
      <point x="550" y="372"/>
      <point x="518" y="472.667"/>
      <point x="462" y="558" type="curve" smooth="yes"/>
      <point x="399.333" y="652.667"/>
      <point x="315.667" y="717.667"/>
      <point x="233" y="735" type="curve"/>
      <point x="202" y="656" type="line"/>
      <point x="336.667" y="608"/>
      <point x="451" y="475.667"/>
      <point x="459" y="345" type="curve"/>
      <point x="495" y="362" type="line"/>
      <point x="432.333" y="488.667"/>
      <point x="371.333" y="536"/>
      <point x="282" y="536" type="curve" smooth="yes"/>
      <point x="155.333" y="536"/>
      <point x="40" y="411.667"/>
      <point x="40" y="265" type="curve" smooth="yes"/>
      <point x="40" y="113"/>
      <point x="152.667" y="-7"/>
    </contour>
    <contour>
      <point x="297" y="82" type="curve" smooth="yes"/>
      <point x="206.333" y="82"/>
      <point x="136" y="162.333"/>
      <point x="136" y="265" type="curve" smooth="yes"/>
      <point x="136" y="367.667"/>
      <point x="206.333" y="446"/>
      <point x="297" y="446" type="curve" smooth="yes"/>
      <point x="387.667" y="446"/>
      <point x="459" y="366.333"/>
      <point x="459" y="265" type="curve" smooth="yes"/>
      <point x="459" y="162.333"/>
      <point x="387.667" y="82"/>
    </contour>
  </outline>
</glyph>
<glyph name="radical" format="2">
  <advance width="684"/>
  <unicode hex="221A"/>
  <outline>
    <contour>
      <point x="191" y="-130" type="line"/>
      <point x="281" y="-130" type="line"/>
      <point x="554" y="620" type="line"/>
      <point x="492" y="603" type="line"/>
      <point x="664" y="603" type="line"/>
      <point x="664" y="700" type="line"/>
      <point x="473" y="700" type="line"/>
      <point x="204" y="-67" type="line"/>
      <point x="259" y="-88" type="line"/>
      <point x="124" y="309" type="line"/>
      <point x="15" y="309" type="line"/>
    </contour>
  </outline>
</glyph>
<glyph name="approxequal" format="2">
  <advance width="559"/>
  <unicode hex="2248"/>
  <outline>
    <contour>
      <point x="395" y="284" type="curve" smooth="yes"/>
      <point x="468.333" y="284"/>
      <point x="509" y="332.333"/>
      <point x="509" y="415" type="curve"/>
      <point x="435" y="413" type="line"/>
      <point x="435" y="370.333"/>
      <point x="424" y="359"/>
      <point x="400" y="359" type="curve" smooth="yes"/>
      <point x="374" y="359"/>
      <point x="325" y="382"/>
      <point x="301" y="392" type="curve" smooth="yes"/>
      <point x="269" y="406"/>
      <point x="208" y="433"/>
      <point x="172" y="433" type="curve" smooth="yes"/>
      <point x="94.667" y="433"/>
      <point x="50" y="386.333"/>
      <point x="50" y="309" type="curve"/>
      <point x="124" y="314" type="line"/>
      <point x="122.667" y="340.667"/>
      <point x="138.333" y="358"/>
      <point x="161" y="358" type="curve" smooth="yes"/>
      <point x="188" y="358"/>
      <point x="238" y="335"/>
      <point x="262" y="325" type="curve" smooth="yes"/>
      <point x="296" y="311"/>
      <point x="358" y="284"/>
    </contour>
    <contour>
      <point x="395" y="101" type="curve" smooth="yes"/>
      <point x="468.333" y="101"/>
      <point x="509" y="149.333"/>
      <point x="509" y="232" type="curve"/>
      <point x="435" y="230" type="line"/>
      <point x="435" y="187.333"/>
      <point x="424" y="176"/>
      <point x="400" y="176" type="curve" smooth="yes"/>
      <point x="374" y="176"/>
      <point x="325" y="199"/>
      <point x="301" y="209" type="curve" smooth="yes"/>
      <point x="269" y="223"/>
      <point x="208" y="250"/>
      <point x="172" y="250" type="curve" smooth="yes"/>
      <point x="94.667" y="250"/>
      <point x="50" y="203.333"/>
      <point x="50" y="126" type="curve"/>
      <point x="124" y="131" type="line"/>
      <point x="122.667" y="157.667"/>
      <point x="138.333" y="175"/>
      <point x="161" y="175" type="curve" smooth="yes"/>
      <point x="188" y="175"/>
      <point x="238" y="152"/>
      <point x="262" y="142" type="curve" smooth="yes"/>
      <point x="296" y="128"/>
      <point x="358" y="101"/>
    </contour>
  </outline>
</glyph>
<glyph name="I.ss01" format="2">
  <advance width="308"/>
  <anchor x="154" y="0" name="bottom"/>
  <anchor x="208" y="0" name="ogonek"/>
  <anchor x="154" y="700" name="top"/>
  <anchor x="20" y="700" name="topleft"/>
  <outline>
    <contour>
      <point x="100" y="0" type="line"/>
      <point x="208" y="0" type="line"/>
      <point x="208" y="700" type="line"/>
      <point x="190" y="700"/>
      <point x="172" y="700"/>
      <point x="154" y="700" type="curve" smooth="yes"/>
      <point x="100" y="700" type="line"/>
    </contour>
  </outline>
</glyph>
<glyph name="brevecomb_hookabovecomb.case" format="2">
  <anchor x="250" y="700" name="_top"/>
  <anchor x="250" y="850" name="top"/>
  <outline>
    <contour>
      <point x="250" y="751" type="curve" smooth="yes"/>
      <point x="333" y="751"/>
      <point x="395" y="802"/>
      <point x="412" y="885" type="curve"/>
      <point x="342" y="897" type="line"/>
      <point x="323" y="849"/>
      <point x="291" y="828"/>
      <point x="250" y="828" type="curve" smooth="yes"/>
      <point x="209" y="828"/>
      <point x="177" y="849"/>
      <point x="158" y="897" type="curve"/>
      <point x="88" y="885" type="line"/>
      <point x="105" y="802"/>
      <point x="167" y="751"/>
    </contour>
    <contour>
      <point x="230" y="885" type="curve"/>
      <point x="281" y="898" type="line"/>
      <point x="279" y="902"/>
      <point x="278" y="905"/>
      <point x="278" y="909" type="curve" smooth="yes"/>
      <point x="278" y="917"/>
      <point x="288" y="925"/>
      <point x="313" y="940" type="curve" smooth="yes"/>
      <point x="329" y="950"/>
      <point x="350" y="966"/>
      <point x="350" y="994" type="curve" smooth="yes"/>
      <point x="350" y="1036"/>
      <point x="314" y="1071"/>
      <point x="244" y="1071" type="curve" smooth="yes"/>
      <point x="217" y="1071"/>
      <point x="183" y="1063"/>
      <point x="155" y="1047" type="curve"/>
      <point x="171" y="984" type="line"/>
      <point x="193" y="995"/>
      <point x="220" y="1002"/>
      <point x="242" y="1002" type="curve" smooth="yes"/>
      <point x="259" y="1002"/>
      <point x="272" y="997"/>
      <point x="272" y="985" type="curve" smooth="yes"/>
      <point x="272" y="979"/>
      <point x="262" y="972"/>
      <point x="242" y="959" type="curve" smooth="yes"/>
      <point x="218" y="943"/>
      <point x="215" y="932"/>
      <point x="215" y="920" type="curve" smooth="yes"/>
      <point x="215" y="908"/>
      <point x="222" y="895"/>
    </contour>
  </outline>
</glyph>
<glyph name="brevecomb_tildecomb" format="2">
  <anchor x="250" y="525" name="_top"/>
  <anchor x="250" y="790" name="top"/>
  <outline>
    <contour>
      <point x="250" y="589" type="curve" smooth="yes"/>
      <point x="335" y="589"/>
      <point x="393" y="644"/>
      <point x="412" y="733" type="curve"/>
      <point x="338" y="745" type="line"/>
      <point x="321" y="699"/>
      <point x="290" y="670"/>
      <point x="250" y="670" type="curve" smooth="yes"/>
      <point x="210" y="670"/>
      <point x="179" y="699"/>
      <point x="162" y="745" type="curve"/>
      <point x="88" y="733" type="line"/>
      <point x="107" y="644"/>
      <point x="165" y="589"/>
    </contour>
    <contour>
      <point x="326" y="817" type="curve" smooth="yes"/>
      <point x="379" y="817"/>
      <point x="409" y="866"/>
      <point x="412" y="922" type="curve"/>
      <point x="344" y="932" type="line"/>
      <point x="339" y="907"/>
      <point x="325" y="894"/>
      <point x="307" y="894" type="curve" smooth="yes"/>
      <point x="293" y="894"/>
      <point x="278" y="901"/>
      <point x="261" y="909" type="curve" smooth="yes"/>
      <point x="237" y="920"/>
      <point x="215" y="936"/>
      <point x="184" y="936" type="curve" smooth="yes"/>
      <point x="134" y="936"/>
      <point x="92" y="887"/>
      <point x="89" y="831" type="curve"/>
      <point x="157" y="821" type="line"/>
      <point x="162" y="843"/>
      <point x="176" y="858"/>
      <point x="194" y="858" type="curve" smooth="yes"/>
      <point x="211" y="858"/>
      <point x="225" y="850"/>
      <point x="241" y="843" type="curve" smooth="yes"/>
      <point x="265" y="833"/>
      <point x="287" y="817"/>
    </contour>
  </outline>
</glyph>
<glyph name="circumflexcomb_acutecomb.case" format="2">
  <anchor x="251" y="700" name="_top"/>
  <anchor x="251" y="850" name="top"/>
  <outline>
    <contour>
      <point x="127" y="755" type="line"/>
      <point x="265" y="818" type="line"/>
      <point x="236" y="818" type="line"/>
      <point x="374" y="755" type="line"/>
      <point x="407" y="791" type="line"/>
      <point x="287" y="889" type="line"/>
      <point x="214" y="889" type="line"/>
      <point x="94" y="791" type="line"/>
    </contour>
    <contour>
      <point x="379" y="857" type="line"/>
      <point x="496" y="977" type="line"/>
      <point x="419" y="1034" type="line"/>
      <point x="327" y="893" type="line"/>
    </contour>
  </outline>
</glyph>
<glyph name="circumflexcomb_gravecomb.case" format="2">
  <anchor x="251" y="700" name="_top"/>
  <anchor x="251" y="850" name="top"/>
  <outline>
    <contour>
      <point x="127" y="755" type="line"/>
      <point x="265" y="818" type="line"/>
      <point x="236" y="818" type="line"/>
      <point x="374" y="755" type="line"/>
      <point x="407" y="791" type="line"/>
      <point x="287" y="889" type="line"/>
      <point x="214" y="889" type="line"/>
      <point x="94" y="791" type="line"/>
    </contour>
    <contour>
      <point x="386" y="855" type="line"/>
      <point x="434" y="893" type="line"/>
      <point x="341" y="1034" type="line"/>
      <point x="265" y="976" type="line"/>
    </contour>
  </outline>
</glyph>
<glyph name="circumflexcomb_hookabovecomb" format="2">
  <anchor x="197" y="525" name="_top"/>
  <anchor x="197" y="790" name="top"/>
  <outline>
    <contour>
      <point x="77" y="607" type="line"/>
      <point x="212" y="680" type="line"/>
      <point x="182" y="680" type="line"/>
      <point x="317" y="607" type="line"/>
      <point x="355" y="640" type="line"/>
      <point x="240" y="753" type="line"/>
      <point x="154" y="753" type="line"/>
      <point x="39" y="640" type="line"/>
    </contour>
    <contour>
      <point x="341" y="732" type="curve"/>
      <point x="392" y="745" type="line"/>
      <point x="390" y="749"/>
      <point x="389" y="753"/>
      <point x="389" y="758" type="curve" smooth="yes"/>
      <point x="389" y="771"/>
      <point x="400" y="778"/>
      <point x="424" y="790" type="curve" smooth="yes"/>
      <point x="442" y="799"/>
      <point x="461" y="817"/>
      <point x="461" y="851" type="curve" smooth="yes"/>
      <point x="461" y="893"/>
      <point x="425" y="928"/>
      <point x="355" y="928" type="curve" smooth="yes"/>
      <point x="328" y="928"/>
      <point x="294" y="920"/>
      <point x="266" y="904" type="curve"/>
      <point x="282" y="841" type="line"/>
      <point x="304" y="855"/>
      <point x="331" y="859"/>
      <point x="353" y="859" type="curve" smooth="yes"/>
      <point x="370" y="859"/>
      <point x="383" y="854"/>
      <point x="383" y="842" type="curve" smooth="yes"/>
      <point x="383" y="833"/>
      <point x="375" y="827"/>
      <point x="353" y="812" type="curve" smooth="yes"/>
      <point x="331" y="797"/>
      <point x="326" y="782"/>
      <point x="326" y="770" type="curve" smooth="yes"/>
      <point x="326" y="758"/>
      <point x="331" y="745"/>
    </contour>
  </outline>
</glyph>
<glyph name="dotaccentcomb.case" format="2">
  <anchor x="250" y="700" name="_top"/>
  <anchor x="250" y="850" name="top"/>
  <outline>
    <contour>
      <point x="250" y="759" type="curve" smooth="yes"/>
      <point x="296" y="759"/>
      <point x="319" y="791"/>
      <point x="319" y="824" type="curve" smooth="yes"/>
      <point x="319" y="863"/>
      <point x="296" y="889"/>
      <point x="250" y="889" type="curve" smooth="yes"/>
      <point x="203" y="889"/>
      <point x="181" y="857"/>
      <point x="181" y="824" type="curve" smooth="yes"/>
      <point x="181" y="785"/>
      <point x="203" y="759"/>
    </contour>
  </outline>
</glyph>
<glyph name="eight.dnom" format="2">
  <advance width="353"/>
  <outline>
    <contour>
      <point x="177" y="-11" type="curve" smooth="yes"/>
      <point x="249" y="-11"/>
      <point x="309" y="38.333"/>
      <point x="309" y="97" type="curve" smooth="yes"/>
      <point x="309" y="134.333"/>
      <point x="280" y="169.333"/>
      <point x="236" y="188" type="curve"/>
      <point x="237" y="177" type="line"/>
      <point x="277" y="193"/>
      <point x="300" y="221.667"/>
      <point x="300" y="255" type="curve" smooth="yes"/>
      <point x="300" y="312.333"/>
      <point x="245" y="358"/>
      <point x="177" y="358" type="curve" smooth="yes"/>
      <point x="107.667" y="358"/>
      <point x="54" y="312.333"/>
      <point x="54" y="255" type="curve" smooth="yes"/>
      <point x="54" y="219"/>
      <point x="78.333" y="190.333"/>
      <point x="117" y="177" type="curve"/>
      <point x="120" y="188" type="line"/>
      <point x="70.667" y="166.667"/>
      <point x="44" y="134.333"/>
      <point x="44" y="97" type="curve" smooth="yes"/>
      <point x="44" y="38.333"/>
      <point x="103.667" y="-11"/>
    </contour>
    <contour>
      <point x="177" y="52" type="curve" smooth="yes"/>
      <point x="146.333" y="52"/>
      <point x="121" y="74.667"/>
      <point x="121" y="104" type="curve" smooth="yes"/>
      <point x="121" y="130.667"/>
      <point x="145" y="151"/>
      <point x="177" y="151" type="curve" smooth="yes"/>
      <point x="207.667" y="151"/>
      <point x="233" y="130.667"/>
      <point x="233" y="104" type="curve" smooth="yes"/>
      <point x="233" y="74.667"/>
      <point x="207.667" y="52"/>
    </contour>
    <contour>
      <point x="177" y="213" type="curve" smooth="yes"/>
      <point x="150.333" y="213"/>
      <point x="129" y="230.333"/>
      <point x="129" y="253" type="curve" smooth="yes"/>
      <point x="129" y="277"/>
      <point x="149" y="294"/>
      <point x="177" y="294" type="curve" smooth="yes"/>
      <point x="203.667" y="294"/>
      <point x="225" y="275.667"/>
      <point x="225" y="253" type="curve" smooth="yes"/>
      <point x="225" y="230.333"/>
      <point x="203.667" y="213"/>
    </contour>
  </outline>
</glyph>
<glyph name="four.dnom" format="2">
  <advance width="390"/>
  <outline>
    <contour>
      <point x="263" y="149" type="line"/>
      <point x="263" y="81" type="line"/>
      <point x="340" y="81" type="line"/>
      <point x="340" y="149" type="line"/>
    </contour>
    <contour>
      <point x="97" y="115" type="line"/>
      <point x="233" y="273" type="line"/>
      <point x="204" y="284" type="line"/>
      <point x="204" y="130" type="line"/>
      <point x="222" y="149" type="line"/>
      <point x="81" y="149" type="line"/>
    </contour>
    <contour>
      <point x="279" y="-2" type="line"/>
      <point x="279" y="356" type="line"/>
      <point x="213" y="356" type="line"/>
      <point x="45" y="150" type="line"/>
      <point x="62" y="81" type="line"/>
      <point x="217" y="81" type="line"/>
      <point x="204" y="100" type="line"/>
      <point x="204" y="-2" type="line"/>
    </contour>
  </outline>
</glyph>
<glyph name="hookabovecomb.case" format="2">
  <anchor x="251" y="700" name="_top"/>
  <anchor x="251" y="850" name="top"/>
  <outline>
    <contour>
      <point x="228" y="758" type="curve"/>
      <point x="279" y="771" type="line"/>
      <point x="277" y="775"/>
      <point x="276" y="779"/>
      <point x="276" y="784" type="curve" smooth="yes"/>
      <point x="276" y="797"/>
      <point x="287" y="804"/>
      <point x="311" y="816" type="curve" smooth="yes"/>
      <point x="329" y="825"/>
      <point x="348" y="843"/>
      <point x="348" y="877" type="curve" smooth="yes"/>
      <point x="348" y="919"/>
      <point x="312" y="954"/>
      <point x="242" y="954" type="curve" smooth="yes"/>
      <point x="215" y="954"/>
      <point x="181" y="946"/>
      <point x="153" y="930" type="curve"/>
      <point x="169" y="867" type="line"/>
      <point x="191" y="878"/>
      <point x="218" y="885"/>
      <point x="240" y="885" type="curve" smooth="yes"/>
      <point x="257" y="885"/>
      <point x="270" y="880"/>
      <point x="270" y="868" type="curve" smooth="yes"/>
      <point x="270" y="859"/>
      <point x="262" y="853"/>
      <point x="240" y="838" type="curve" smooth="yes"/>
      <point x="218" y="823"/>
      <point x="213" y="808"/>
      <point x="213" y="796" type="curve" smooth="yes"/>
      <point x="213" y="784"/>
      <point x="218" y="771"/>
    </contour>
  </outline>
</glyph>
<glyph name="ogonekcomb.case" format="2">
  <anchor x="332" y="0" name="_ogonek"/>
  <outline>
    <contour>
      <point x="242" y="-200" type="curve" smooth="yes"/>
      <point x="290" y="-200"/>
      <point x="337" y="-171"/>
      <point x="351" y="-138" type="curve"/>
      <point x="295" y="-98" type="line"/>
      <point x="284" y="-114"/>
      <point x="272" y="-123"/>
      <point x="258" y="-123" type="curve" smooth="yes"/>
      <point x="238" y="-123"/>
      <point x="224" y="-108"/>
      <point x="224" y="-87" type="curve" smooth="yes"/>
      <point x="224" y="-51"/>
      <point x="273" y="-13"/>
      <point x="332" y="0" type="curve"/>
      <point x="288" y="51" type="line"/>
      <point x="192" y="24"/>
      <point x="133" y="-30"/>
      <point x="133" y="-97" type="curve" smooth="yes"/>
      <point x="133" y="-153"/>
      <point x="184" y="-200"/>
    </contour>
  </outline>
</glyph>
<glyph name="one.dnom" format="2">
  <advance width="281"/>
  <outline>
    <contour>
      <point x="126" y="-2" type="line"/>
      <point x="138.667" y="-2"/>
      <point x="151.167" y="-2"/>
      <point x="163.5" y="-2" type="curve" smooth="yes"/>
      <point x="201" y="-2" type="line"/>
      <point x="201" y="346" type="line"/>
      <point x="145" y="346" type="line"/>
      <point x="47" y="288" type="line"/>
      <point x="82" y="222" type="line"/>
      <point x="132" y="254" type="line"/>
      <point x="126" y="272" type="line"/>
    </contour>
  </outline>
</glyph>
<glyph name="ringcomb.case" format="2">
  <anchor x="251" y="700" name="_top"/>
  <anchor x="251" y="940" name="top"/>
  <outline>
    <contour>
      <point x="250" y="759" type="curve" smooth="yes"/>
      <point x="308" y="759"/>
      <point x="360" y="807"/>
      <point x="360" y="864" type="curve" smooth="yes"/>
      <point x="360" y="923"/>
      <point x="308" y="970"/>
      <point x="250" y="970" type="curve" smooth="yes"/>
      <point x="193" y="970"/>
      <point x="141" y="923"/>
      <point x="141" y="864" type="curve" smooth="yes"/>
      <point x="141" y="807"/>
      <point x="193" y="759"/>
    </contour>
    <contour>
      <point x="250" y="818" type="curve" smooth="yes"/>
      <point x="223" y="818"/>
      <point x="201" y="839"/>
      <point x="201" y="864" type="curve" smooth="yes"/>
      <point x="201" y="892"/>
      <point x="223" y="911"/>
      <point x="250" y="911" type="curve" smooth="yes"/>
      <point x="276" y="911"/>
      <point x="300" y="894"/>
      <point x="300" y="864" type="curve" smooth="yes"/>
      <point x="300" y="838"/>
      <point x="278" y="818"/>
    </contour>
  </outline>
</glyph>
<glyph name="two.dnom" format="2">
  <advance width="346"/>
  <outline>
    <contour>
      <point x="65" y="0" type="line"/>
      <point x="296" y="0" type="line"/>
      <point x="296" y="67" type="line"/>
      <point x="142" y="67" type="line"/>
      <point x="138" y="58" type="line"/>
      <point x="205" y="123" type="line" smooth="yes"/>
      <point x="238" y="155"/>
      <point x="292" y="205"/>
      <point x="292" y="261" type="curve" smooth="yes"/>
      <point x="292" y="319"/>
      <point x="247" y="361"/>
      <point x="182" y="361" type="curve" smooth="yes"/>
      <point x="124" y="361"/>
      <point x="72.667" y="327"/>
      <point x="42" y="275" type="curve"/>
      <point x="96" y="235" type="line"/>
      <point x="124" y="274"/>
      <point x="152" y="289"/>
      <point x="175" y="289" type="curve" smooth="yes"/>
      <point x="198" y="289"/>
      <point x="210" y="275"/>
      <point x="210" y="254" type="curve" smooth="yes"/>
      <point x="210" y="220"/>
      <point x="172" y="186"/>
      <point x="155" y="169.5" type="curve" smooth="yes"/>
      <point x="56" y="71" type="line"/>
    </contour>
  </outline>
</glyph>
